<?xml version="1.0" encoding="utf-8"?>
<!-- Generator: Adobe Illustrator 22.1.0, SVG Export Plug-In . SVG Version: 6.00 Build 0)  -->
<svg version="1.1" id="Layer_1" xmlns="http://www.w3.org/2000/svg" xmlns:xlink="http://www.w3.org/1999/xlink" x="0px" y="0px"
	 viewBox="0 0 1920 1080" style="enable-background:new 0 0 1920 1080;" xml:space="preserve">
<style type="text/css">
	.st0{fill:none;stroke:#534F34;stroke-width:7;stroke-miterlimit:10;}
</style>
<g>
	
		<ellipse transform="matrix(0.8365 -0.548 0.548 0.8365 -136.0799 623.9408)" class="st0" cx="977.5" cy="540" rx="10.2" ry="10.2"/>
	
		<ellipse transform="matrix(0.8365 -0.548 0.548 0.8365 -136.0799 623.9408)" class="st0" cx="977.5" cy="540" rx="10.2" ry="10.2"/>
	
		<ellipse transform="matrix(1 -7.902114e-03 7.902114e-03 1 -4.2366 7.7412)" class="st0" cx="977.5" cy="540" rx="25.4" ry="25.4"/>
	
		<ellipse transform="matrix(1 -7.902114e-03 7.902114e-03 1 -4.2366 7.7412)" class="st0" cx="977.5" cy="540" rx="25.4" ry="25.4"/>
	<path class="st0" d="M1018.1,540c0,22.4-18.2,40.6-40.6,40.6c-22.5,0-40.6-18.2-40.6-40.6c0-22.4,18.2-40.6,40.6-40.6
		C999.9,499.4,1018.1,517.6,1018.1,540z"/>
	<path class="st0" d="M1018.1,540c0,22.4-18.2,40.6-40.6,40.6c-22.5,0-40.6-18.2-40.6-40.6c0-22.4,18.2-40.6,40.6-40.6
		C999.9,499.4,1018.1,517.6,1018.1,540z"/>
	<path class="st0" d="M1033.4,540c0,30.9-25,55.9-55.9,55.9c-30.9,0-55.9-25-55.9-55.9s25-55.9,55.9-55.9
		C1008.4,484.1,1033.4,509.1,1033.4,540z"/>
	<path class="st0" d="M1033.4,540c0,30.9-25,55.9-55.9,55.9c-30.9,0-55.9-25-55.9-55.9s25-55.9,55.9-55.9
		C1008.4,484.1,1033.4,509.1,1033.4,540z"/>
	<path class="st0" d="M1048.6,540c0,39.3-31.8,71.1-71.1,71.1c-39.3,0-71.1-31.8-71.1-71.1c0-39.3,31.8-71.1,71.1-71.1
		C1016.8,468.9,1048.6,500.7,1048.6,540z"/>
	<path class="st0" d="M1048.6,540c0,39.3-31.8,71.1-71.1,71.1c-39.3,0-71.1-31.8-71.1-71.1c0-39.3,31.8-71.1,71.1-71.1
		C1016.8,468.9,1048.6,500.7,1048.6,540z"/>
	<path class="st0" d="M1063.8,540c0,47.7-38.7,86.4-86.3,86.4c-47.7,0-86.4-38.7-86.4-86.4c0-47.7,38.7-86.4,86.4-86.4
		C1025.2,453.6,1063.8,492.3,1063.8,540z"/>
	<path class="st0" d="M1063.8,540c0,47.7-38.7,86.4-86.3,86.4c-47.7,0-86.4-38.7-86.4-86.4c0-47.7,38.7-86.4,86.4-86.4
		C1025.2,453.6,1063.8,492.3,1063.8,540z"/>
	<path class="st0" d="M1079.1,540c0,56.1-45.5,101.6-101.6,101.6c-56.1,0-101.6-45.5-101.6-101.6s45.5-101.6,101.6-101.6
		C1033.6,438.4,1079.1,483.9,1079.1,540z"/>
	<path class="st0" d="M1079.1,540c0,56.1-45.5,101.6-101.6,101.6c-56.1,0-101.6-45.5-101.6-101.6s45.5-101.6,101.6-101.6
		C1033.6,438.4,1079.1,483.9,1079.1,540z"/>
	<path class="st0" d="M1094.3,540c0,64.5-52.3,116.8-116.8,116.8c-64.5,0-116.8-52.3-116.8-116.8S913,423.2,977.5,423.2
		C1042,423.2,1094.3,475.5,1094.3,540z"/>
	<path class="st0" d="M1094.3,540c0,64.5-52.3,116.8-116.8,116.8c-64.5,0-116.8-52.3-116.8-116.8S913,423.2,977.5,423.2
		C1042,423.2,1094.3,475.5,1094.3,540z"/>
	<path class="st0" d="M1109.6,540c0,72.9-59.1,132.1-132.1,132.1c-73,0-132.1-59.1-132.1-132.1s59.1-132.1,132.1-132.1
		C1050.4,407.9,1109.6,467.1,1109.6,540z"/>
	<path class="st0" d="M1109.6,540c0,72.9-59.1,132.1-132.1,132.1c-73,0-132.1-59.1-132.1-132.1s59.1-132.1,132.1-132.1
		C1050.4,407.9,1109.6,467.1,1109.6,540z"/>
	<path class="st0" d="M1124.8,540c0,81.4-66,147.3-147.3,147.3s-147.3-66-147.3-147.3s66-147.3,147.3-147.3S1124.8,458.6,1124.8,540
		z"/>
	<path class="st0" d="M1124.8,540c0,81.4-66,147.3-147.3,147.3s-147.3-66-147.3-147.3s66-147.3,147.3-147.3S1124.8,458.6,1124.8,540
		z"/>
	<path class="st0" d="M1140,540c0,89.8-72.8,162.6-162.5,162.6c-89.8,0-162.6-72.8-162.6-162.6s72.8-162.6,162.6-162.6
		C1067.3,377.4,1140,450.2,1140,540z"/>
	<path class="st0" d="M1140,540c0,89.8-72.8,162.6-162.5,162.6c-89.8,0-162.6-72.8-162.6-162.6s72.8-162.6,162.6-162.6
		C1067.3,377.4,1140,450.2,1140,540z"/>
	<path class="st0" d="M1155.3,540c0,98.2-79.6,177.8-177.8,177.8c-98.2,0-177.8-79.6-177.8-177.8s79.6-177.8,177.8-177.8
		C1075.7,362.2,1155.3,441.8,1155.3,540z"/>
	<path class="st0" d="M1155.3,540c0,98.2-79.6,177.8-177.8,177.8c-98.2,0-177.8-79.6-177.8-177.8s79.6-177.8,177.8-177.8
		C1075.7,362.2,1155.3,441.8,1155.3,540z"/>
	<path class="st0" d="M1170.5,540c0,106.6-86.4,193-193,193s-193-86.4-193-193s86.4-193,193-193S1170.5,433.4,1170.5,540z"/>
	<path class="st0" d="M1170.5,540c0,106.6-86.4,193-193,193s-193-86.4-193-193s86.4-193,193-193S1170.5,433.4,1170.5,540z"/>
	<path class="st0" d="M1185.8,540c0,115-93.3,208.3-208.3,208.3c-115,0-208.3-93.2-208.3-208.3s93.3-208.3,208.3-208.3
		C1092.5,331.7,1185.8,425,1185.8,540z"/>
	<path class="st0" d="M1185.8,540c0,115-93.3,208.3-208.3,208.3c-115,0-208.3-93.2-208.3-208.3s93.3-208.3,208.3-208.3
		C1092.5,331.7,1185.8,425,1185.8,540z"/>
	<path class="st0" d="M1201,540c0,123.4-100.1,223.5-223.5,223.5C854,763.5,754,663.4,754,540S854,316.5,977.5,316.5
		C1100.9,316.5,1201,416.6,1201,540z"/>
	<path class="st0" d="M1201,540c0,123.4-100.1,223.5-223.5,223.5C854,763.5,754,663.4,754,540S854,316.5,977.5,316.5
		C1100.9,316.5,1201,416.6,1201,540z"/>
	<path class="st0" d="M1216.3,540c0,131.9-106.9,238.8-238.8,238.8S738.7,671.9,738.7,540s106.9-238.8,238.8-238.8
		S1216.3,408.1,1216.3,540z"/>
	<path class="st0" d="M1216.3,540c0,131.9-106.9,238.8-238.8,238.8S738.7,671.9,738.7,540s106.9-238.8,238.8-238.8
		S1216.3,408.1,1216.3,540z"/>
	<path class="st0" d="M1231.5,540c0,140.3-113.7,254-254,254c-140.3,0-254-113.7-254-254c0-140.3,113.7-254,254-254
		C1117.8,286,1231.5,399.7,1231.5,540z"/>
	<path class="st0" d="M1231.5,540c0,140.3-113.7,254-254,254c-140.3,0-254-113.7-254-254c0-140.3,113.7-254,254-254
		C1117.8,286,1231.5,399.7,1231.5,540z"/>
	<path class="st0" d="M1246.7,540c0,148.7-120.5,269.2-269.2,269.2c-148.7,0-269.2-120.5-269.2-269.2s120.5-269.2,269.2-269.2
		C1126.2,270.8,1246.7,391.3,1246.7,540z"/>
	<path class="st0" d="M1246.7,540c0,148.7-120.5,269.2-269.2,269.2c-148.7,0-269.2-120.5-269.2-269.2s120.5-269.2,269.2-269.2
		C1126.2,270.8,1246.7,391.3,1246.7,540z"/>
	<circle class="st0" cx="926.3" cy="540" r="10"/>
	<circle class="st0" cx="926.3" cy="540" r="10"/>
	<circle class="st0" cx="926.3" cy="540" r="25"/>
	<circle class="st0" cx="926.3" cy="540" r="25"/>
	<circle class="st0" cx="926.3" cy="540" r="40"/>
	<circle class="st0" cx="926.3" cy="540" r="40"/>
	<circle class="st0" cx="926.3" cy="540" r="55"/>
	<circle class="st0" cx="926.3" cy="540" r="55"/>
	<circle class="st0" cx="926.3" cy="540" r="70"/>
	<circle class="st0" cx="926.3" cy="540" r="70"/>
	<circle class="st0" cx="926.3" cy="540" r="85"/>
	<circle class="st0" cx="926.3" cy="540" r="85"/>
	<circle class="st0" cx="926.3" cy="540" r="100"/>
	<circle class="st0" cx="926.3" cy="540" r="100"/>
	<circle class="st0" cx="926.3" cy="540" r="115"/>
	<circle class="st0" cx="926.3" cy="540" r="115"/>
	<circle class="st0" cx="926.3" cy="540" r="130"/>
	<circle class="st0" cx="926.3" cy="540" r="130"/>
	<circle class="st0" cx="926.3" cy="540" r="145"/>
	<circle class="st0" cx="926.3" cy="540" r="145"/>
	<circle class="st0" cx="926.3" cy="540" r="160"/>
	<circle class="st0" cx="926.3" cy="540" r="160"/>
	<circle class="st0" cx="926.3" cy="540" r="175"/>
	<circle class="st0" cx="926.3" cy="540" r="175"/>
	<circle class="st0" cx="926.3" cy="540" r="190"/>
	<circle class="st0" cx="926.3" cy="540" r="190"/>
	<circle class="st0" cx="926.3" cy="540" r="205"/>
	<circle class="st0" cx="926.3" cy="540" r="205"/>
	<circle class="st0" cx="926.3" cy="540" r="220"/>
	<circle class="st0" cx="926.3" cy="540" r="220"/>
	<circle class="st0" cx="926.3" cy="540" r="235"/>
	<circle class="st0" cx="926.3" cy="540" r="235"/>
	<circle class="st0" cx="926.3" cy="540" r="250"/>
	<circle class="st0" cx="926.3" cy="540" r="250"/>
	<circle class="st0" cx="926.3" cy="540" r="265"/>
	<circle class="st0" cx="926.3" cy="540" r="265"/>
	<path class="st0" d="M1262,540c0,157.1-127.4,284.5-284.5,284.5S693,697.1,693,540s127.4-284.5,284.5-284.5S1262,382.9,1262,540z"
		/>
	<path class="st0" d="M1262,540c0,157.1-127.4,284.5-284.5,284.5S693,697.1,693,540s127.4-284.5,284.5-284.5S1262,382.9,1262,540z"
		/>
	<path class="st0" d="M1277.2,540c0,165.5-134.2,299.7-299.7,299.7C812,839.7,677.8,705.5,677.8,540
		c0-165.5,134.2-299.7,299.7-299.7C1143,240.3,1277.2,374.5,1277.2,540z"/>
	<path class="st0" d="M1277.2,540c0,165.5-134.2,299.7-299.7,299.7C812,839.7,677.8,705.5,677.8,540
		c0-165.5,134.2-299.7,299.7-299.7C1143,240.3,1277.2,374.5,1277.2,540z"/>
	<path class="st0" d="M1292.5,540c0,173.9-141,315-315,315c-174,0-315-141-315-315s141-315,315-315
		C1151.4,225,1292.5,366.1,1292.5,540z"/>
	<path class="st0" d="M1292.5,540c0,173.9-141,315-315,315c-174,0-315-141-315-315s141-315,315-315
		C1151.4,225,1292.5,366.1,1292.5,540z"/>
	<path class="st0" d="M1307.7,540c0,182.4-147.8,330.2-330.2,330.2S647.3,722.4,647.3,540s147.8-330.2,330.2-330.2
		S1307.7,357.6,1307.7,540z"/>
	<path class="st0" d="M1307.7,540c0,182.4-147.8,330.2-330.2,330.2S647.3,722.4,647.3,540s147.8-330.2,330.2-330.2
		S1307.7,357.6,1307.7,540z"/>
	
		<ellipse transform="matrix(0.7071 -0.7071 0.7071 0.7071 -95.5345 849.3591)" class="st0" cx="977.5" cy="540" rx="345.4" ry="345.4"/>
	
		<ellipse transform="matrix(0.7071 -0.7071 0.7071 0.7071 -95.5345 849.3591)" class="st0" cx="977.5" cy="540" rx="345.4" ry="345.4"/>
	<circle class="st0" cx="977.5" cy="540" r="360.7"/>
	<circle class="st0" cx="977.5" cy="540" r="360.7"/>
	<circle class="st0" cx="977.5" cy="540" r="375.9"/>
	<circle class="st0" cx="977.5" cy="540" r="375.9"/>
	
		<ellipse transform="matrix(0.7071 -0.7071 0.7071 0.7071 -95.5346 849.3593)" class="st0" cx="977.5" cy="540" rx="391.2" ry="391.2"/>
	
		<ellipse transform="matrix(0.7071 -0.7071 0.7071 0.7071 -95.5346 849.3593)" class="st0" cx="977.5" cy="540" rx="391.2" ry="391.2"/>
	<path class="st0" d="M1383.9,540c0,224.4-181.9,406.4-406.4,406.4C753,946.4,571.1,764.4,571.1,540S753,133.6,977.5,133.6
		C1201.9,133.6,1383.9,315.6,1383.9,540z"/>
	<path class="st0" d="M1383.9,540c0,224.4-181.9,406.4-406.4,406.4C753,946.4,571.1,764.4,571.1,540S753,133.6,977.5,133.6
		C1201.9,133.6,1383.9,315.6,1383.9,540z"/>
	<path class="st0" d="M1399.1,540c0,232.9-188.8,421.6-421.6,421.6c-232.9,0-421.6-188.8-421.6-421.6s188.8-421.6,421.6-421.6
		C1210.3,118.4,1399.1,307.1,1399.1,540z"/>
	<path class="st0" d="M1399.1,540c0,232.9-188.8,421.6-421.6,421.6c-232.9,0-421.6-188.8-421.6-421.6s188.8-421.6,421.6-421.6
		C1210.3,118.4,1399.1,307.1,1399.1,540z"/>
	<path class="st0" d="M1414.4,540c0,241.3-195.6,436.9-436.9,436.9c-241.3,0-436.9-195.6-436.9-436.9
		c0-241.3,195.6-436.9,436.9-436.9C1218.8,103.1,1414.4,298.7,1414.4,540z"/>
	<path class="st0" d="M1414.4,540c0,241.3-195.6,436.9-436.9,436.9c-241.3,0-436.9-195.6-436.9-436.9
		c0-241.3,195.6-436.9,436.9-436.9C1218.8,103.1,1414.4,298.7,1414.4,540z"/>
	<path class="st0" d="M1429.6,540c0,249.7-202.4,452.1-452.1,452.1c-249.7,0-452.1-202.4-452.1-452.1S727.8,87.9,977.5,87.9
		C1227.2,87.9,1429.6,290.3,1429.6,540z"/>
	<path class="st0" d="M1429.6,540c0,249.7-202.4,452.1-452.1,452.1c-249.7,0-452.1-202.4-452.1-452.1S727.8,87.9,977.5,87.9
		C1227.2,87.9,1429.6,290.3,1429.6,540z"/>
	<path class="st0" d="M1444.8,540c0,258.1-209.2,467.3-467.3,467.3c-258.1,0-467.4-209.2-467.4-467.3S719.4,72.6,977.5,72.6
		C1235.6,72.6,1444.8,281.9,1444.8,540z"/>
	<path class="st0" d="M1444.8,540c0,258.1-209.2,467.3-467.3,467.3c-258.1,0-467.4-209.2-467.4-467.3S719.4,72.6,977.5,72.6
		C1235.6,72.6,1444.8,281.9,1444.8,540z"/>
	<path class="st0" d="M1460.1,540c0,266.5-216.1,482.6-482.6,482.6c-266.5,0-482.6-216.1-482.6-482.6
		c0-266.5,216.1-482.6,482.6-482.6C1244,57.4,1460.1,273.5,1460.1,540z"/>
	<path class="st0" d="M1460.1,540c0,266.5-216.1,482.6-482.6,482.6c-266.5,0-482.6-216.1-482.6-482.6
		c0-266.5,216.1-482.6,482.6-482.6C1244,57.4,1460.1,273.5,1460.1,540z"/>
	<path class="st0" d="M1475.3,540c0,274.9-222.9,497.8-497.8,497.8c-275,0-497.8-222.9-497.8-497.8c0-274.9,222.9-497.8,497.8-497.8
		C1252.4,42.2,1475.3,265.1,1475.3,540z"/>
	<path class="st0" d="M1475.3,540c0,274.9-222.9,497.8-497.8,497.8c-275,0-497.8-222.9-497.8-497.8c0-274.9,222.9-497.8,497.8-497.8
		C1252.4,42.2,1475.3,265.1,1475.3,540z"/>
	<path class="st0" d="M1490.6,540c0,283.4-229.7,513.1-513.1,513.1c-283.4,0-513.1-229.7-513.1-513.1
		c0-283.4,229.7-513.1,513.1-513.1C1260.8,26.9,1490.6,256.6,1490.6,540z"/>
	<path class="st0" d="M1490.6,540c0,283.4-229.7,513.1-513.1,513.1c-283.4,0-513.1-229.7-513.1-513.1
		c0-283.4,229.7-513.1,513.1-513.1C1260.8,26.9,1490.6,256.6,1490.6,540z"/>
	<path class="st0" d="M1505.8,540c0,291.8-236.5,528.3-528.3,528.3c-291.8,0-528.3-236.5-528.3-528.3S685.7,11.7,977.5,11.7
		C1269.3,11.7,1505.8,248.2,1505.8,540z"/>
	<path class="st0" d="M1505.8,540c0,291.8-236.5,528.3-528.3,528.3c-291.8,0-528.3-236.5-528.3-528.3S685.7,11.7,977.5,11.7
		C1269.3,11.7,1505.8,248.2,1505.8,540z"/>
	<path class="st0" d="M1521,540c0,300.2-243.4,543.5-543.5,543.5C677.3,1083.5,434,840.2,434,540C434,239.8,677.3-3.5,977.5-3.5
		C1277.7-3.5,1521,239.8,1521,540z"/>
	<path class="st0" d="M1521,540c0,300.2-243.4,543.5-543.5,543.5C677.3,1083.5,434,840.2,434,540C434,239.8,677.3-3.5,977.5-3.5
		C1277.7-3.5,1521,239.8,1521,540z"/>
	<path class="st0" d="M1536.3,540c0,308.6-250.2,558.8-558.8,558.8c-308.6,0-558.8-250.2-558.8-558.8
		c0-308.6,250.2-558.8,558.8-558.8C1286.1-18.8,1536.3,231.4,1536.3,540z"/>
	<path class="st0" d="M1536.3,540c0,308.6-250.2,558.8-558.8,558.8c-308.6,0-558.8-250.2-558.8-558.8
		c0-308.6,250.2-558.8,558.8-558.8C1286.1-18.8,1536.3,231.4,1536.3,540z"/>
	<path class="st0" d="M1551.5,540c0,317-257,574-574,574c-317,0-574-257-574-574c0-317,257-574,574-574
		C1294.5-34,1551.5,223,1551.5,540z"/>
	<path class="st0" d="M1551.5,540c0,317-257,574-574,574c-317,0-574-257-574-574c0-317,257-574,574-574
		C1294.5-34,1551.5,223,1551.5,540z"/>
	<path class="st0" d="M1566.8,540c0,325.4-263.8,589.3-589.3,589.3c-325.5,0-589.3-263.8-589.3-589.3
		c0-325.4,263.8-589.3,589.3-589.3C1302.9-49.3,1566.8,214.6,1566.8,540z"/>
	<path class="st0" d="M1566.8,540c0,325.4-263.8,589.3-589.3,589.3c-325.5,0-589.3-263.8-589.3-589.3
		c0-325.4,263.8-589.3,589.3-589.3C1302.9-49.3,1566.8,214.6,1566.8,540z"/>
	<path class="st0" d="M1582,540c0,333.9-270.7,604.5-604.5,604.5C643.6,1144.5,373,873.9,373,540c0-333.9,270.6-604.5,604.5-604.5
		C1311.3-64.5,1582,206.1,1582,540z"/>
	<path class="st0" d="M1582,540c0,333.9-270.7,604.5-604.5,604.5C643.6,1144.5,373,873.9,373,540c0-333.9,270.6-604.5,604.5-604.5
		C1311.3-64.5,1582,206.1,1582,540z"/>
	<path class="st0" d="M1597.2,540c0,342.3-277.5,619.7-619.7,619.7c-342.3,0-619.8-277.5-619.8-619.7
		c0-342.3,277.5-619.7,619.8-619.7C1319.8-79.7,1597.2,197.7,1597.2,540z"/>
	<path class="st0" d="M1597.2,540c0,342.3-277.5,619.7-619.7,619.7c-342.3,0-619.8-277.5-619.8-619.7
		c0-342.3,277.5-619.7,619.8-619.7C1319.8-79.7,1597.2,197.7,1597.2,540z"/>
	<path class="st0" d="M1612.5,540c0,350.7-284.3,635-635,635c-350.7,0-635-284.3-635-635c0-350.7,284.3-635,635-635
		C1328.2-95,1612.5,189.3,1612.5,540z"/>
	<path class="st0" d="M1612.5,540c0,350.7-284.3,635-635,635c-350.7,0-635-284.3-635-635c0-350.7,284.3-635,635-635
		C1328.2-95,1612.5,189.3,1612.5,540z"/>
	<path class="st0" d="M1627.7,540c0,359.1-291.1,650.2-650.2,650.2c-359.1,0-650.2-291.1-650.2-650.2
		c0-359.1,291.1-650.2,650.2-650.2C1336.6-110.2,1627.7,180.9,1627.7,540z"/>
	<path class="st0" d="M1627.7,540c0,359.1-291.1,650.2-650.2,650.2c-359.1,0-650.2-291.1-650.2-650.2
		c0-359.1,291.1-650.2,650.2-650.2C1336.6-110.2,1627.7,180.9,1627.7,540z"/>
	<path class="st0" d="M1643,540c0,367.5-297.9,665.5-665.5,665.5C610,1205.5,312,907.5,312,540c0-367.5,297.9-665.5,665.5-665.5
		C1345-125.5,1643,172.5,1643,540z"/>
	<path class="st0" d="M1643,540c0,367.5-297.9,665.5-665.5,665.5C610,1205.5,312,907.5,312,540c0-367.5,297.9-665.5,665.5-665.5
		C1345-125.5,1643,172.5,1643,540z"/>
	<circle class="st0" cx="977.5" cy="540" r="680.7"/>
	<circle class="st0" cx="977.5" cy="540" r="680.7"/>
	
		<ellipse transform="matrix(0.7071 -0.7071 0.7071 0.7071 -95.5347 849.3592)" class="st0" cx="977.5" cy="540" rx="695.9" ry="695.9"/>
	
		<ellipse transform="matrix(0.7071 -0.7071 0.7071 0.7071 -95.5347 849.3592)" class="st0" cx="977.5" cy="540" rx="695.9" ry="695.9"/>
	
		<ellipse transform="matrix(0.7071 -0.7071 0.7071 0.7071 -95.5345 849.3591)" class="st0" cx="977.5" cy="540" rx="711.2" ry="711.2"/>
	
		<ellipse transform="matrix(0.7071 -0.7071 0.7071 0.7071 -95.5345 849.3591)" class="st0" cx="977.5" cy="540" rx="711.2" ry="711.2"/>
	<circle class="st0" cx="977.5" cy="540" r="726.4"/>
	<circle class="st0" cx="977.5" cy="540" r="726.4"/>
	<circle class="st0" cx="977.5" cy="540" r="741.7"/>
	<circle class="st0" cx="977.5" cy="540" r="741.7"/>
	
		<ellipse transform="matrix(0.7071 -0.7071 0.7071 0.7071 -95.5346 849.3593)" class="st0" cx="977.5" cy="540" rx="756.9" ry="756.9"/>
	
		<ellipse transform="matrix(0.7071 -0.7071 0.7071 0.7071 -95.5346 849.3593)" class="st0" cx="977.5" cy="540" rx="756.9" ry="756.9"/>
	
		<ellipse transform="matrix(0.7071 -0.7071 0.7071 0.7071 -95.5352 849.3574)" class="st0" cx="977.5" cy="540" rx="772.1" ry="772.1"/>
	
		<ellipse transform="matrix(0.7071 -0.7071 0.7071 0.7071 -95.5352 849.3574)" class="st0" cx="977.5" cy="540" rx="772.1" ry="772.1"/>
	<circle class="st0" cx="977.5" cy="540" r="787.4"/>
	<circle class="st0" cx="977.5" cy="540" r="787.4"/>
	<circle class="st0" cx="977.5" cy="540" r="802.6"/>
	<circle class="st0" cx="977.5" cy="540" r="802.6"/>
	
		<ellipse transform="matrix(0.7071 -0.7071 0.7071 0.7071 -95.5354 849.3574)" class="st0" cx="977.5" cy="540" rx="817.9" ry="817.9"/>
	
		<ellipse transform="matrix(0.7071 -0.7071 0.7071 0.7071 -95.5354 849.3574)" class="st0" cx="977.5" cy="540" rx="817.9" ry="817.9"/>
	
		<ellipse transform="matrix(0.7071 -0.7071 0.7071 0.7071 -95.5352 849.3574)" class="st0" cx="977.5" cy="540" rx="833.1" ry="833.1"/>
	
		<ellipse transform="matrix(0.7071 -0.7071 0.7071 0.7071 -95.5352 849.3574)" class="st0" cx="977.5" cy="540" rx="833.1" ry="833.1"/>
	<circle class="st0" cx="977.5" cy="540" r="848.3"/>
	<circle class="st0" cx="977.5" cy="540" r="848.3"/>
	<circle class="st0" cx="977.5" cy="540" r="863.6"/>
	<circle class="st0" cx="977.5" cy="540" r="863.6"/>
	
		<ellipse transform="matrix(0.7071 -0.7071 0.7071 0.7071 -95.5353 849.3576)" class="st0" cx="977.5" cy="540" rx="878.8" ry="878.8"/>
	
		<ellipse transform="matrix(0.7071 -0.7071 0.7071 0.7071 -95.5353 849.3576)" class="st0" cx="977.5" cy="540" rx="878.8" ry="878.8"/>
	
		<ellipse transform="matrix(0.7071 -0.7071 0.7071 0.7071 -95.5352 849.3574)" class="st0" cx="977.5" cy="540" rx="894.1" ry="894.1"/>
	
		<ellipse transform="matrix(0.7071 -0.7071 0.7071 0.7071 -95.5352 849.3574)" class="st0" cx="977.5" cy="540" rx="894.1" ry="894.1"/>
	<circle class="st0" cx="977.5" cy="540" r="909.3"/>
	<circle class="st0" cx="977.5" cy="540" r="909.3"/>
	<circle class="st0" cx="977.5" cy="540" r="924.5"/>
	<circle class="st0" cx="977.5" cy="540" r="924.5"/>
	
		<ellipse transform="matrix(0.7071 -0.7071 0.7071 0.7071 -95.5352 849.3574)" class="st0" cx="977.5" cy="540" rx="939.8" ry="939.8"/>
	
		<ellipse transform="matrix(0.7071 -0.7071 0.7071 0.7071 -95.5352 849.3574)" class="st0" cx="977.5" cy="540" rx="939.8" ry="939.8"/>
	<circle class="st0" cx="977.5" cy="540" r="955"/>
	<circle class="st0" cx="977.5" cy="540" r="955"/>
	<circle class="st0" cx="977.5" cy="540" r="970.3"/>
	<circle class="st0" cx="977.5" cy="540" r="970.3"/>
	<circle class="st0" cx="977.5" cy="540" r="985.5"/>
	<circle class="st0" cx="977.5" cy="540" r="985.5"/>
	
		<ellipse transform="matrix(0.7071 -0.7071 0.7071 0.7071 -95.5353 849.3575)" class="st0" cx="977.5" cy="540" rx="1000.7" ry="1000.7"/>
	
		<ellipse transform="matrix(0.7071 -0.7071 0.7071 0.7071 -95.5353 849.3575)" class="st0" cx="977.5" cy="540" rx="1000.7" ry="1000.7"/>
	<circle class="st0" cx="977.5" cy="540" r="1016"/>
	<circle class="st0" cx="977.5" cy="540" r="1016"/>
	<circle class="st0" cx="977.5" cy="540" r="1031.2"/>
	<circle class="st0" cx="977.5" cy="540" r="1031.2"/>
	<circle class="st0" cx="977.5" cy="540" r="1046.5"/>
	<circle class="st0" cx="977.5" cy="540" r="1046.5"/>
	
		<ellipse transform="matrix(0.7071 -0.7071 0.7071 0.7071 -95.5347 849.3592)" class="st0" cx="977.5" cy="540" rx="1061.7" ry="1061.7"/>
	
		<ellipse transform="matrix(0.7071 -0.7071 0.7071 0.7071 -95.5347 849.3592)" class="st0" cx="977.5" cy="540" rx="1061.7" ry="1061.7"/>
	
		<ellipse transform="matrix(0.7071 -0.7071 0.7071 0.7071 -95.5345 849.3591)" class="st0" cx="977.5" cy="540" rx="1076.9" ry="1076.9"/>
	
		<ellipse transform="matrix(0.7071 -0.7071 0.7071 0.7071 -95.5345 849.3591)" class="st0" cx="977.5" cy="540" rx="1076.9" ry="1076.9"/>
	<circle class="st0" cx="977.5" cy="540" r="1092.2"/>
	<circle class="st0" cx="977.5" cy="540" r="1092.2"/>
	<circle class="st0" cx="977.5" cy="540" r="1107.4"/>
	<circle class="st0" cx="977.5" cy="540" r="1107.4"/>
	<circle class="st0" cx="926.3" cy="540" r="280"/>
	<circle class="st0" cx="926.3" cy="540" r="280"/>
	<circle class="st0" cx="926.3" cy="540" r="295"/>
	<circle class="st0" cx="926.3" cy="540" r="295"/>
	<circle class="st0" cx="926.3" cy="540" r="310"/>
	<circle class="st0" cx="926.3" cy="540" r="310"/>
	<circle class="st0" cx="926.3" cy="540" r="325"/>
	<circle class="st0" cx="926.3" cy="540" r="325"/>
	<circle class="st0" cx="926.3" cy="540" r="340"/>
	<circle class="st0" cx="926.3" cy="540" r="340"/>
	<circle class="st0" cx="926.3" cy="540" r="355"/>
	<circle class="st0" cx="926.3" cy="540" r="355"/>
	<circle class="st0" cx="926.3" cy="540" r="370"/>
	<circle class="st0" cx="926.3" cy="540" r="370"/>
	<circle class="st0" cx="926.3" cy="540" r="385"/>
	<circle class="st0" cx="926.3" cy="540" r="385"/>
	<circle class="st0" cx="926.3" cy="540" r="400"/>
	<circle class="st0" cx="926.3" cy="540" r="400"/>
	<circle class="st0" cx="926.3" cy="540" r="415"/>
	<circle class="st0" cx="926.3" cy="540" r="415"/>
	<circle class="st0" cx="926.3" cy="540" r="430"/>
	<circle class="st0" cx="926.3" cy="540" r="430"/>
	<circle class="st0" cx="926.3" cy="540" r="445"/>
	<circle class="st0" cx="926.3" cy="540" r="445"/>
	<circle class="st0" cx="926.3" cy="540" r="460"/>
	<circle class="st0" cx="926.3" cy="540" r="460"/>
	<circle class="st0" cx="926.3" cy="540" r="475"/>
	<circle class="st0" cx="926.3" cy="540" r="475"/>
	<circle class="st0" cx="926.3" cy="540" r="490"/>
	<circle class="st0" cx="926.3" cy="540" r="490"/>
	<circle class="st0" cx="926.3" cy="540" r="505"/>
	<circle class="st0" cx="926.3" cy="540" r="505"/>
	<circle class="st0" cx="926.3" cy="540" r="520"/>
	<circle class="st0" cx="926.3" cy="540" r="520"/>
	<circle class="st0" cx="926.3" cy="540" r="535"/>
	<circle class="st0" cx="926.3" cy="540" r="535"/>
	<circle class="st0" cx="926.3" cy="540" r="550"/>
	<circle class="st0" cx="926.3" cy="540" r="550"/>
	<circle class="st0" cx="926.3" cy="540" r="565"/>
	<circle class="st0" cx="926.3" cy="540" r="565"/>
	<circle class="st0" cx="926.3" cy="540" r="580"/>
	<circle class="st0" cx="926.3" cy="540" r="580"/>
	<circle class="st0" cx="926.3" cy="540" r="595"/>
	<circle class="st0" cx="926.3" cy="540" r="595"/>
	<circle class="st0" cx="926.3" cy="540" r="610"/>
	<circle class="st0" cx="926.3" cy="540" r="610"/>
	<circle class="st0" cx="926.3" cy="540" r="625"/>
	<circle class="st0" cx="926.3" cy="540" r="625"/>
	<circle class="st0" cx="926.3" cy="540" r="640"/>
	<circle class="st0" cx="926.3" cy="540" r="640"/>
	<circle class="st0" cx="926.3" cy="540" r="655"/>
	<circle class="st0" cx="926.3" cy="540" r="655"/>
	<circle class="st0" cx="926.3" cy="540" r="670"/>
	<circle class="st0" cx="926.3" cy="540" r="670"/>
	<circle class="st0" cx="926.3" cy="540" r="685"/>
	<circle class="st0" cx="926.3" cy="540" r="685"/>
	<circle class="st0" cx="926.3" cy="540" r="700"/>
	<circle class="st0" cx="926.3" cy="540" r="700"/>
	<circle class="st0" cx="926.3" cy="540" r="715"/>
	<circle class="st0" cx="926.3" cy="540" r="715"/>
	<circle class="st0" cx="926.3" cy="540" r="730"/>
	<circle class="st0" cx="926.3" cy="540" r="730"/>
	<circle class="st0" cx="926.3" cy="540" r="745"/>
	<circle class="st0" cx="926.3" cy="540" r="745"/>
	<circle class="st0" cx="926.3" cy="540" r="760"/>
	<circle class="st0" cx="926.3" cy="540" r="760"/>
	<circle class="st0" cx="926.3" cy="540" r="775"/>
	<circle class="st0" cx="926.3" cy="540" r="775"/>
	<circle class="st0" cx="926.3" cy="540" r="790"/>
	<circle class="st0" cx="926.3" cy="540" r="790"/>
	<circle class="st0" cx="926.3" cy="540" r="805"/>
	<circle class="st0" cx="926.3" cy="540" r="805"/>
	<circle class="st0" cx="926.3" cy="540" r="820"/>
	<circle class="st0" cx="926.3" cy="540" r="820"/>
	<circle class="st0" cx="926.3" cy="540" r="835"/>
	<circle class="st0" cx="926.3" cy="540" r="835"/>
	<circle class="st0" cx="926.3" cy="540" r="850"/>
	<circle class="st0" cx="926.3" cy="540" r="850"/>
	<circle class="st0" cx="926.3" cy="540" r="865"/>
	<circle class="st0" cx="926.3" cy="540" r="865"/>
	<circle class="st0" cx="926.3" cy="540" r="880"/>
	<circle class="st0" cx="926.3" cy="540" r="880"/>
	<circle class="st0" cx="926.3" cy="540" r="895"/>
	<circle class="st0" cx="926.3" cy="540" r="895"/>
	<circle class="st0" cx="926.3" cy="540" r="910"/>
	<circle class="st0" cx="926.3" cy="540" r="910"/>
	<circle class="st0" cx="926.3" cy="540" r="925"/>
	<circle class="st0" cx="926.3" cy="540" r="925"/>
	<circle class="st0" cx="926.3" cy="540" r="940"/>
	<circle class="st0" cx="926.3" cy="540" r="940"/>
	<circle class="st0" cx="926.3" cy="540" r="955"/>
	<circle class="st0" cx="926.3" cy="540" r="955"/>
	<circle class="st0" cx="926.3" cy="540" r="970"/>
	<circle class="st0" cx="926.3" cy="540" r="970"/>
	<circle class="st0" cx="926.3" cy="540" r="985"/>
	<circle class="st0" cx="926.3" cy="540" r="985"/>
	<circle class="st0" cx="926.3" cy="540" r="1000"/>
	<circle class="st0" cx="926.3" cy="540" r="1000"/>
	<circle class="st0" cx="926.3" cy="540" r="1015"/>
	<circle class="st0" cx="926.3" cy="540" r="1015"/>
	<circle class="st0" cx="926.3" cy="540" r="1030"/>
	<circle class="st0" cx="926.3" cy="540" r="1030"/>
	<circle class="st0" cx="926.3" cy="540" r="1045"/>
	<circle class="st0" cx="926.3" cy="540" r="1045"/>
	<circle class="st0" cx="926.3" cy="540" r="1060"/>
	<circle class="st0" cx="926.3" cy="540" r="1060"/>
	<circle class="st0" cx="926.3" cy="540" r="1075"/>
	<circle class="st0" cx="926.3" cy="540" r="1075"/>
	<circle class="st0" cx="926.3" cy="540" r="1090"/>
	<circle class="st0" cx="926.3" cy="540" r="1090"/>
</g>
</svg>
