<?xml version="1.0" encoding="utf-8"?>
<!-- Generator: Adobe Illustrator 22.1.0, SVG Export Plug-In . SVG Version: 6.00 Build 0)  -->
<svg version="1.1" id="Layer_1" xmlns="http://www.w3.org/2000/svg" xmlns:xlink="http://www.w3.org/1999/xlink" x="0px" y="0px"
	 viewBox="0 0 206 206" style="enable-background:new 0 0 206 206;" xml:space="preserve">
<title>PCD2019-logo-circle</title>
<g>
	<path d="M199.4,75.7c-0.4-1.7-1-3.4-1.6-5c-0.5,0.5,0,1.4-0.7,1.9c-0.1-0.9-0.2-1.6-0.3-2.4c0-0.3,0-0.6,0-0.9
		c0.3-0.8,0-1.5-0.3-2.2c-11.1-28.9-35-51.1-64.6-60.1c-5.9-1.8-12-3-18.2-3.6c-0.1,0-0.2,0-0.4,0.1l0.6,0.6
		c-1.4-0.1-2.6-0.2-3.8-0.3c-0.2,0-0.6-0.1-0.4-0.4c0.4-0.5,0.1-0.4-0.2-0.4C106,2.8,102.5,2.8,99,2.9c-0.2,0-0.4,0-0.5,0.1
		c-0.6,0.7-0.6,0.6-1.3,0.7c-1.4,0.1-2.6-0.7-4-0.5c-2.8,0.4-5.7,0.7-8.5,1.3c-21,4-39.1,13.6-53.8,29.1
		C11.9,53.5,2.7,77.2,2.9,104.5c0,1.7-0.3,3.5,0.8,5.1c0.2,0.3,0.1,0.8,0.1,1.2c0.2,1-0.6,1.9-0.4,2.9c0.5,4.4,1.3,8.8,2.3,13.1
		c4.7,18.8,13.9,35.1,27.9,48.4c18.3,17.4,40,26.7,65.2,27.9c8.8,0.4,17.6-0.3,26.2-2.3c19.4-4.4,36.2-13.8,50-28.2
		c17.4-18.1,26.7-39.8,28-64.9C203.6,96.9,202.4,86.1,199.4,75.7z M180.3,47.1c-1.5-0.4-2.4-1.1-3-2.3
		C178.6,45.1,179.6,45.8,180.3,47.1z M175.8,83.8c1.1,0.4,1.9,1.8,2.4,4C176.9,86.8,176,85.4,175.8,83.8z M176.1,117.5
		c-0.3-1.5,0.2-2.6,0.3-4C177.1,114.7,177,115.9,176.1,117.5z M175.9,105.1c-0.8-1-0.6-3.3,0.5-4.8l0,0
		C176.6,102.1,176.3,103.6,175.9,105.1z M174.3,68.2c0.5-0.1,0.4,0.3,0.5,0.6c0.2,0.8,0.8,1.4,1.4,1.9c0.6,0.6,1.2,1.1,1.3,2
		c-1.1-0.5-2.2-1.1-3-2.1c-0.4-0.4-0.6-1-0.6-1.6C174,68.7,173.8,68.3,174.3,68.2z M176.8,135.6c-2.2,1.5-4.8,0.7-7.1,1.1
		C171.7,134.5,174.4,136.1,176.8,135.6z M166.1,131.7c1.1-1.2,3-1.4,4.8-0.7h0C170,132,168.6,132.2,166.1,131.7z M162.9,23.4
		c-1.1,0.7-2.1,0.5-3.3-1C160.9,22.4,161.9,23,162.9,23.4z M163.7,70.2c-1.7,0-2.7-0.9-3.6-2.1C161.5,67.7,163,68.6,163.7,70.2z
		 M162,74.9c-1.6,0.2-3.2,0-4.6-0.8C159,73.5,161.1,73.9,162,74.9z M156.4,57.1l-3.3-2.9C154.2,53.5,155.8,54.8,156.4,57.1z
		 M154.4,75.8c-1.1,0-2.1-0.2-3.3-0.7C152.5,74.4,153.5,75,154.4,75.8z M153.9,32.6c-1.3-0.2-2.2-1.1-3.3-1.6
		C151.9,29.9,153.4,30.6,153.9,32.6z M151.5,77.3c-1.2,1.3-2.6,1.2-3.6-0.2C149.1,76.9,150.2,77.3,151.5,77.3z M140,51.4
		c1,0.9,1.9,2,2.8,3.1c-1.6,0.1-3.4-0.9-4-2.1c-0.2-0.4-0.2-0.7,0.2-1C139.2,51.2,139.7,51.1,140,51.4z M144,75.9
		c-1.6,0.2-3.3,0.3-4.8-0.6C140.9,75,142.5,75,144,75.9z M139.3,49.3c-1.5-0.1-3.4-1.2-4.4-2.5l0,0C136.6,46.8,138.8,48,139.3,49.3z
		 M127.7,28.4c1.6-0.2,7.4,2.6,10.8,5.2C136.5,33.7,130.5,30.8,127.7,28.4z M117.5,45.9c-0.2-0.2-0.3-0.4-0.5-0.6
		c1.4,0.4,2.8,0.7,3.7,1.9c0.3,0.5,0.5,0.1,0.8-0.1c0.3-0.3,0.8-0.5,1,0.1c0.3,0.9,1,1.5,1.7,2.1c0.2,0.1,0.4,0.3,0.3,0.6
		c-0.2,0.3-0.5,0.1-0.7,0.1c-0.4-0.1-0.7-0.2-1-0.4C121.1,48.2,119.1,47.4,117.5,45.9z M121.6,98.8c-0.9-1.6-0.5-3.1-0.3-4.9
		C122.6,95.5,122.6,97.3,121.6,98.8z M118.9,17.3c1.3-0.7,6.4,0.4,8.4,1.8C124.4,19,121.7,18.5,118.9,17.3z M132.6,24.1
		c-1.7,0.9-5.2-0.1-6.5-1.9L132.6,24.1z M125.6,30.6c-0.1,0.3-0.4,0.2-0.7,0.1c-1.6-0.3-2.7-1.2-3.8-2.3l0,0
		c1.5,0.2,2.9,0.7,4.1,1.6C125.4,30.2,125.7,30.3,125.6,30.6z M123.2,32.8c1.7,0,3.2,0.8,4.3,2.2C125.8,34.7,124.4,33.9,123.2,32.8z
		 M131.1,40.3L131.1,40.3c-1.9-0.5-3.9-0.8-5.4-2.8C128,38,129.7,38.8,131.1,40.3z M130.1,44.5L130.1,44.5c-1.5,0.2-2.6-0.4-3.2-1.7
		C128.2,42.8,129.2,43.5,130.1,44.5z M128.8,55.9c2.4,0.5,4.1,1.6,4.9,3.3C131.8,58.6,130.1,57.4,128.8,55.9z M131,75.7
		c-1.3,0.6-2.3,0.4-3.3-0.4C128.8,75.1,129.9,74.9,131,75.7z M129.8,52.7c2.1,0.3,3.3,1.4,4.4,2.8C133,55.8,131.2,54.7,129.8,52.7z
		 M133.4,10.2c-1.6,0.5-4.5-0.3-6-1.7C129.6,8.6,131.4,9.4,133.4,10.2z M127.6,13.3c-1.3-0.1-2.6-0.3-3.9-0.8
		C125.2,12.2,126.5,12.3,127.6,13.3z M123.2,14.5c-3.4,0.1-6.7-1.1-10-1.7C116.8,12.4,120.1,12.9,123.2,14.5z M113.4,72.2l-0.1,0.3
		l-4.1-1.7l0.1-0.3C110.8,70.5,112.3,71,113.4,72.2z M111,8.4c-1.1,0.5-2.1,0.4-3.2,0.1C108.7,7.7,109.7,7.6,111,8.4z M105.2,47.9
		c0.1-0.2,0.4-0.3,0.6-0.4c0.7-0.3,1.4-0.3,2,0.2c0.3,0.2,0.8,0.5,0.7,0.9c-0.1,0.4-0.7,0.4-1.1,0.4l0,0c-0.6,0-1.2-0.2-1.8-0.5
		C105.4,48.3,105.1,48.2,105.2,47.9z M107.6,54.8c-0.6-0.2-1.6-0.1-1.8-0.9c-0.1-0.3,0.8-0.4,1.4-0.5c0.5,0,1.2,0,1.3,0.7
		C108.5,54.8,108,54.7,107.6,54.8z M105.1,38.1c-6.1-1.3-12-3.3-17.9-5.2C93.4,33.9,99.3,36,105.1,38.1z M95.5,45.8
		c-1.2,0.9-2.5,0.9-3.9,0.1C93,45.4,94.2,45.1,95.5,45.8z M90.3,29.9l-0.1,0.3l-4.7-1.1l0.1-0.3C87.4,28.3,88.9,29.1,90.3,29.9z
		 M86.5,21.1c-1.5,0.2-2.4-0.5-3.3-1.3h0C84.4,19.8,85.7,20.2,86.5,21.1z M88.2,37.7c-3.3-0.2-6.6-1-9.7-2.3
		C81.9,35.6,85.2,36.1,88.2,37.7z M72.9,65.2c1,1.9,1.1,3.6,1.1,5.5C72.9,69.8,72.5,67.5,72.9,65.2z M69.5,28.3
		c0.6,0.1,1.3,0.3,1.3,0.9c0,0.5-0.6,0.1-0.9,0.3c-0.5-0.1-1.3,0.1-1.4-0.6C68.5,28.4,69.1,28.3,69.5,28.3z M54.1,44.1
		c1.2,0.4,1.8,1.6,1.9,3.4C55.2,46.9,54.7,46,54.1,44.1L54.1,44.1z M51.3,63.9L51.3,63.9c1.2,1.8,2.4,3.6,3.5,5.4
		c0.1,0.2,0.3,0.5,0,0.7c-0.4,0.3-0.6,0-0.8-0.3c-1.5-1.6-2.4-3.6-3-5.7L51.3,63.9z M38.2,37.1c0.2,1.3,0.1,2.3-0.8,3.5
		C37.2,39.2,37.3,38.2,38.2,37.1z M35.7,62.7L35.7,62.7c0.4,0.9,0.7,1.6,0.6,2.4c-0.1,0.4-0.3,0.8-0.8,0.8c-0.4,0-0.4-0.4-0.5-0.7
		C34.9,64.3,35.2,63.4,35.7,62.7z M34.9,71.8L34.9,71.8c0.8,1.1,1.6,2.2,2.4,3.3c0,0,0,0,0,0c0.1,0.2,0.1,0.4-0.1,0.5c0,0,0,0-0.1,0
		c-0.1,0.1-0.3,0-0.4-0.1c-0.4-0.6-1.2-0.9-1.7-1.5C34.6,73.4,34.3,72.7,34.9,71.8z M37.3,103.8c0.8,2.5,1.8,4.9,0.2,7.5
		C36.8,108.8,36.4,106.3,37.3,103.8z M37.8,91.7v5C36.9,95.1,37,93.4,37.8,91.7z M38.7,115.2c0.1,1.1,0.2,2.2,0.3,3.4
		c0,0.3,0.3,0.8-0.1,1c-0.5,0.3-0.6-0.4-1-0.6c0,0.2,0,0.4-0.1,0.6c-0.1,0.5,0.3,1.2-0.4,1.3c-0.5,0-0.5-0.8-0.6-1.3
		c-0.4-1.6-0.1-3.3,0.9-4.6c0.2-0.3,0.4-0.6,0.8-0.5C38.8,114.6,38.7,114.9,38.7,115.2z M39.5,105.7L39.5,105.7
		c1.3,4,0.6,8,0.6,12.3C38.9,116,38.7,110,39.5,105.7z M39.1,102c0-3.8,0-7.7,0-11.5h0.2c0.1,1.5,0.3,3.1,0.3,4.6
		c0.1,2.1,0.2,4.1,0.4,6.2c0,0.2,0,0.4,0,0.7c0,0.3,0,0.6-0.4,0.6C39.2,102.6,39.1,102.4,39.1,102z M35.9,89.3v-4.1l0.3,0
		C36.7,86.6,36.8,88,35.9,89.3z M34.9,116.9c0.1-0.2,0.4-0.2,0.6-0.1c0.5,0.5,0.5,1.1,0.5,1.8c0,0.4,0.1,1.3-0.4,1.3
		c-0.6,0.1-0.6-0.8-0.8-1.3C34.5,118.1,34.3,117.5,34.9,116.9z M34.5,122c-1.6-1.4-1.9-3.4-0.8-5.5C33.7,118.4,35,120,34.5,122z
		 M33.1,90.1c0.8,1.2,1.2,2.3,1,3.5c0,0.2,0,0.4-0.2,0.5c-0.3,0.1-0.4-0.2-0.5-0.4C33,92.6,32.8,91.4,33.1,90.1z M32.2,97.8
		L32.2,97.8c1.1,1.4,1.1,3.2,0.1,4.8C31.7,101,31.7,99.5,32.2,97.8z M30.7,102.3L30.7,102.3c0.7,1.5,0.7,2.2,0.1,3.3
		C30.1,104.7,30,103.6,30.7,102.3z M30.2,80.1c-0.4-1.6-0.5-3.1,0.2-4.6C31.1,77,31,78.7,30.2,80.1z M29.6,66.4
		c1.2,1.3,0.6,2.8,1,4.2C29.3,69.8,28.9,68.4,29.6,66.4z M22.2,72.9c0.4,1.9,0.8,3.7,0.3,5.9C20.9,76.7,22.1,74.8,22.2,72.9z
		 M20.8,85.3c0.7,1,1.1,1.9,0.7,3.1c-0.1,0.2-0.1,0.6-0.4,0.6c-0.3,0-0.4-0.3-0.5-0.5C20.3,87.4,20.4,86.4,20.8,85.3z M21.5,111.3
		c-1.4-1.4-1.4-2.9-1.5-4.5C21.3,108,21.2,109.6,21.5,111.3z M16.6,63.1c0.5,1.4,0.5,3,0,4.4C15.8,66.2,15.8,64.8,16.6,63.1z
		 M15.6,83.3c1.2,2,1.2,4.2,1.6,6.4C16.1,87.8,15.4,85.7,15.6,83.3z M16.6,138.7c-0.1,0-0.3-0.1-0.4-0.3c-0.8-0.9-1.2-2.1-1.1-3.3
		c1.1,0.7,1.7,1.8,1.8,3.1C16.8,138.4,16.9,138.7,16.6,138.7z M5.1,113.5c0.6,1.4,1,2.9,1.2,4.5C5.1,116.8,4.9,115.2,5.1,113.5z
		 M6,111c-0.7-1.9-1.3-3.8-0.6-6.1C6.2,107.1,6.8,109,6,111z M7.1,101.5c-0.7-1.5-0.7-2.7-0.2-4.2C7.8,98.6,7.5,99.9,7.1,101.5z
		 M7.6,86.5c-1.5-1.6-0.6-3.2,0-4.8V86.5z M10.3,121.5c0,0.2,0,0.4-0.2,0.4c-0.2,0.1-0.3-0.1-0.4-0.3c-0.2-0.4-0.4-0.8-0.6-1.3
		c-0.4-1.7-0.2-3.4,0.1-5.1C10.1,117.2,10.5,119.4,10.3,121.5z M10.4,92c-0.9-1.8-0.6-3.5-0.1-5.2l0,0C10.9,88.5,10.9,90.3,10.4,92z
		 M13.5,91.6c-0.6-1-0.4-2-0.6-2.9c0,0,0,0,0,0c0-0.2,0.1-0.3,0.2-0.4c0,0,0,0,0,0c0.2-0.1,0.4,0.1,0.5,0.3
		C14,89.5,14.1,90.5,13.5,91.6z M14.2,92.3c1.2,1.1,1.6,2.3,1.8,3.6c0,0.2,0,0.5,0,0.8c-0.1,0.5,0.2,1.3-0.2,1.4
		c-0.6,0.1-0.8-0.7-1-1.2C14.2,95.5,14.1,94.1,14.2,92.3z M14.4,143.5c0.9,2.5,1.8,5,2.7,7.4c0.1,0.2,0.1,0.5,0.2,0.8
		C16,150.5,14.1,145.4,14.4,143.5z M18.5,121.6c0.5,0.5,1,1.1,1.2,1.8c0.5,1.2,0.7,2.5,0.6,3.8c-1.6-1.7-2.2-3.5-2.4-5.5
		C17.9,121.4,18.2,121.4,18.5,121.6z M19.2,149.5c-0.1-0.4-0.2-0.9,0.2-1.1c0.5-0.2,0.8,0.2,1.1,0.5c0.9,1,1.1,2.4,1.6,3.9
		C20.5,152.1,19.5,151.1,19.2,149.5z M22.1,131.1c-0.1,0-0.3-0.1-0.3-0.2c-0.5-0.9-0.9-1.8-0.7-2.9c0.9,0.8,1.2,1.7,1.2,2.7
		C22.3,130.8,22.3,131.1,22.1,131.1z M22.7,100c-0.9-1.5-1.5-2.9-1.4-4.5C22.4,96.8,23.1,98.1,22.7,100z M23.5,72.8
		c-0.8-2.8-0.9-8.4-0.2-9.6C23.9,65.6,24.1,71,23.5,72.8z M26.4,78.8c0.7,2.5,0.7,5.2,0.1,7.7C25.6,84,26.1,81.4,26.4,78.8z
		 M26.8,147.9c1.4,0.5,2.9,3,3.1,5.1C28.4,151.7,27.3,149.9,26.8,147.9z M31.4,120.4c-0.2,0.3-0.5,0.4-0.8,0.3
		c-0.3,0-0.5-0.3-0.5-0.6c-0.1-0.8-0.2-1.5,0.5-2.2c0.7-0.7,1-1.6,1.3-2.5c0.1-0.2-0.1-0.5,0.5-0.6
		C32.6,116.7,32.5,118.6,31.4,120.4z M32.8,143.6c0.3-0.2,0.6,0.1,0.7,0.3c0.5,0.7,0.6,1.5,0.8,2.5c-1-0.6-1.6-1.2-1.8-2
		C32.5,144.1,32.5,143.8,32.8,143.6z M32.8,158.9c-0.1-0.2-0.2-0.4,0-0.6c0.2,0,0.4,0,0.5,0.1c1,0.5,1.7,1.4,2.2,2.6
		C34.1,160.7,33.3,160,32.8,158.9z M35.7,162.3c-0.1-0.2-0.2-0.4-0.1-0.5c0.2-0.2,0.4-0.1,0.6,0.1c1.1,0.7,1.6,1.8,2.3,3.3
		C37.3,164.5,36.3,163.5,35.7,162.3z M54.3,141.8c0.1-0.4,0.5-1.3,0.9-1.2c1.1,0.2,2.3-0.2,3.6,0.8c-1.3,0.4-2.5,0.5-3.5,1.1
		C55,142.6,54.2,142.2,54.3,141.8z M56.3,138.2c0.2-0.5,0.1-1.4,1-1.4c0.5,0,0.8,0.4,0.9,0.9c-0.2,0.5-0.3,1.1-1,1.1
		C56.8,138.8,56.2,138.6,56.3,138.2z M59.7,154.9c1-0.5,2.3-0.2,3.6,0.9C61.9,156,60.9,155.3,59.7,154.9z M58.3,149.3
		c1.4-0.5,5.8,0.5,7.3,1.7C63.2,150.7,60.7,150.4,58.3,149.3z M69.1,106.5c-3.8,2.5-7.8,4.3-12.4,4.4c-1.4,0-2.8-0.1-4.1-0.1
		c-1.9,0-2.3,0.4-2.3,2.3c-0.1,2.6,0.4,5.2,0.6,7.8c0.2,2.1,0.4,4.2,0.6,6.3c0.1,1,0.5,1.5,1.5,1.4c1.3-0.1,2.6-0.1,3.9,0.1
		c1,0.1,1.4,0.6,1.6,1.5c0.2,0.9-0.2,1.1-1,1.2c-3.9,0.7-7.7,0.5-11.6,0.2c-2.1-0.1-4.1,0-6.2,0c-0.5,0-1.2,0.4-1.5-0.4
		c-0.4-1.2-0.2-2.3,0.7-2.8c0.9-0.6,1.9-0.9,3-0.9c2.2-0.1,2.9-0.9,2.9-3.1c0-2.5-0.5-4.9-0.7-7.4c-0.3-2.9-0.1-5.8,0-8.7
		c0.1-5.9,0.2-11.8-0.3-17.7c-0.2-2.1-0.7-4.2-0.1-6.3c0-0.1,0-0.1,0-0.2c0.1-0.5-0.3-0.9-0.8-1c-1.4-0.3-2.6-1.3-4.2-1
		c-0.4,0.1-0.8-0.2-1.1-0.5c-1.1-1.3-0.2-4.2,1.4-4.6c1.4-0.4,2.9-0.6,4.4-0.6c2.7-0.1,5.5,0,8.2,0v0.2c2.4,0,4.9,0,7.3,0
		c2.3,0,4.5,0.5,6.8,1c1.6,0.4,3,1.3,4,2.6c2.4,3,3.9,6.4,4,10.4c0.1,4.6-0.8,9-2.4,13.3C70.7,105,70,105.9,69.1,106.5z M40.5,94.3
		c0.8,2.4,0.8,3.8,0.3,5C40.3,98.7,40.2,96.8,40.5,94.3z M71.2,135.1c-0.4-4-1-8,0.1-12C72,127.1,71.8,131.1,71.2,135.1z
		 M73.8,134.4c-0.8-1.4-1-3-0.5-4.7C74.1,130.6,74.3,132.2,73.8,134.4z M75.4,114.3v8C74.3,120.7,74.2,115.4,75.4,114.3z
		 M88.3,187.6c1.5-0.2,2.7,0.3,4.1,0.8l0,0C90.7,189.3,89.8,189,88.3,187.6z M94.1,185.9c-0.1,0.4-0.4,0.4-0.7,0.4
		c-1.6-0.2-3.1-0.8-4.3-1.8l0,0c1.6,0.1,3.1,0.6,4.6,1C93.9,185.5,94.1,185.6,94.1,185.9z M96.4,201.9c-0.6,0.1-0.9-0.2-0.9-0.8
		s0.5-0.9,0.9-0.8c0.5,0.2,1.5-0.2,1.5,0.6C97.9,201.5,97.2,201.9,96.4,201.9z M97.8,132.4h4.2C100.3,133.2,99,132.7,97.8,132.4z
		 M102.7,171.2c-0.9,0.6-1.6,0.6-2.5,0.1C101.1,170.9,101.8,171,102.7,171.2L102.7,171.2z M100.6,150.5c1.6-0.8,2.7-0.1,3.9,0.4
		C103.2,151.4,102,151.2,100.6,150.5z M102.6,141.4L102.6,141.4c1-0.8,1.8-0.8,3.1,0C104.7,141.5,103.6,141.5,102.6,141.4z
		 M106.8,201.6c1.1-0.5,2-0.5,3.1,0.2C109.1,202.5,108,202.4,106.8,201.6z M114,188.5c-1.9,0.7-3.7,1-5.8,0.4c1.4-1.3,4-1.7,5.6-1
		c0.2,0.1,0.3,0.2,0.4,0.3C114.3,188.3,114.2,188.4,114,188.5z M110.5,139.5c1.5-0.5,3.1-0.3,4.4,0.4
		C113.8,140.4,112,140.2,110.5,139.5z M113.7,130.7c-1.3,0-2.5-0.3-3.8-0.4c-3.6-0.4-7.1-0.2-10.7-0.4c-3.5-0.2-7-0.9-10.4-2
		c-0.6-0.2-1.1-0.5-1.6-0.9c-5.5-4.4-8.5-9.9-9-17c-0.4-6.6,0-13.2,1.1-19.7c1-5.5,8.1-13.6,14-14.5c2.7-0.4,5.4-0.3,8.2-0.1
		c3,0.3,6,0.6,9,1c2.2,0.3,4.2,1.3,6.2,2.1c1.3,0.6,1.9,1.7,2.1,3c0.3,1.7,0.3,3.5,0.3,5.2c0,0.8-0.4,1.1-1.1,1.1
		c-2.6,0.1-2.6,0.1-2.7-2.5c-0.1-2.2-0.5-2.8-2.5-3.5c-4.1-1.5-8.3-1.5-12.5-0.9c-1.4,0.2-2.9,0.6-4.3,0.7c-2.8,0.3-4.8,1.7-6.6,3.7
		c-1,1.1-1.9,2.3-2.8,3.5c-0.6,0.7-0.9,1.5-1.1,2.4c-0.3,2.7-0.7,5.3-1.1,8c-0.6,3.9,0.5,7.6,1.6,11.4c0.9,3,2.7,5.6,5.2,7.5
		c3.7,2.8,7.5,5.2,12.1,5.9c1.6,0.2,3.1,0.3,4.7,0.2c2.2,0,4.4-0.4,6.6-0.6c1.2-0.2,1.6,0.1,1.7,1.4c0.1,1,0.1,2,0,3.1
		C116,130,115.2,130.8,113.7,130.7z M120.3,154c-1.2,1-2.6,1.2-4.1,0.4C117.6,153.4,119,153.8,120.3,154z M120.3,173.1
		c-1,1-1.8,0.8-2.9,0.2C118.4,172.6,119.2,172.8,120.3,173.1z M120.7,194.1c-1.5,0.8-3,0.4-4.4,0H120.7z M118.2,196.8
		c0.9-1.1,2.6-1.2,4.6-0.5C121.3,197.1,119.8,196.7,118.2,196.8z M119.3,200.1c1.1-1.1,2.8-1.1,4.3-0.2
		C122.1,200.4,120.7,200.3,119.3,200.1z M120.9,190c1.5-1,2.7-0.7,4.2-0.2C123.7,190.8,122.5,190.4,120.9,190z M122.2,186.3
		c2.3-1,4.7-1.5,7.2-0.9C127.2,186.9,124.6,185.9,122.2,186.3z M128.6,189.8L128.6,189.8c1-0.6,2-1.3,3.3-0.9
		C131,190.1,129.9,190.1,128.6,189.8z M137.1,179.9L137.1,179.9c-1.5,1.5-3.4,1.4-5.3,1.6C133.4,180.4,135.2,179.8,137.1,179.9z
		 M131.5,172.2c-0.1,0-0.3-0.1-0.4-0.2c-0.1-0.2,0.1-0.3,0.3-0.4c1.3-0.7,2.8-1,4.2-0.7C134.3,172.1,132.9,172.3,131.5,172.2z
		 M136.6,166c-0.6,0.2-1.1,0.3-1.7,0.4c-0.4,0-0.8,0-0.9-0.4c-0.1-0.4,0.1-0.6,0.4-0.8c0.6-0.5,1.4-0.5,2.1-0.8
		c0.4-0.1,0.6,0.2,0.7,0.5C137.4,165.4,137.1,165.9,136.6,166z M134.3,138.2c-0.2,0-0.5,0-0.5-0.3c0-0.1,0.1-0.3,0.2-0.3
		c1-0.3,2-0.7,3.1-0.3c0.4,0.1,0.8,0.3,0.7,0.8c-0.1,0.5-0.6,0.3-0.8,0.3C136,138.3,135.2,138.2,134.3,138.2z M134.2,164.1
		c-1.3,0.8-2.5,0.3-3.9,0C131.5,163.3,132.3,163.3,134.2,164.1z M137.4,187.1c-0.7,1.2-1.7,1.4-2.8,0.8
		C135.4,187.5,136.4,187.2,137.4,187.1L137.4,187.1z M135.4,183c1.1-1.6,4.9-1.7,6.7,0H135.4z M143.5,138.6c0,0.2-0.2,0.3-0.5,0.3
		c-1.3-0.4-2.2,0.5-3.2,1c-1,0.4-2,0.5-2.9-0.1c-0.2-0.1-0.5-0.2-0.5-0.5c0-0.3,0.4-0.3,0.6-0.3c1-0.3,1.9,0.2,3,0.1l0,0
		c-0.1-0.4-0.5-0.4-0.6-0.8c1.2-0.6,2.5-0.2,3.7,0c0,0,0,0,0,0C143.4,138.2,143.5,138.3,143.5,138.6
		C143.5,138.5,143.5,138.5,143.5,138.6z M148.2,153.6L148.2,153.6c0.9-0.8,2.1-1.2,3.3-1.1C150.6,153.2,149.4,153.7,148.2,153.6z
		 M148.2,131.2c1.3-1.5,2.6-1.1,3.9-0.8C150.9,130.9,149.6,131.1,148.2,131.2z M152.9,170.6c-1,0.9-2.2,1.1-3.5,1.5
		C150.3,171,151.6,170.8,152.9,170.6z M143.7,129.5c-5.4,0.4-10.7,0.7-16.1,1.2c-1.7,0.2-2.2-0.2-2.4-1.9c-0.1-0.6-0.1-1.2,0-1.7
		c0.2-1.1,0.8-1.7,1.8-1.9c2.9-0.6,4-1.9,4-4.8c0-9,0-18,0-27c0-2.9,0.3-5.9,0.4-8.8c0.1-2.1-0.7-2.7-2.7-2.8c-1,0-2-0.1-2.9-0.2
		c-1-0.1-1.9-2.5-1.2-3.3c0.2-0.2,0.6-0.4,0.9-0.3c5.2,0.5,10.5-0.1,15.7,0c3,0.1,6,0.5,9,1c3.2,0.6,6.4,0.7,9.6,1.3
		c4.3,0.9,7.6,3.1,9.5,7.2c1.2,2.7,2.8,5.3,3.2,8.3c0.2,1.2,0.1,2.4,0.2,4.1l0,0c-0.3,3.9,0,8.2-1.1,12.5
		c-1.8,6.9-5.9,11.7-12.7,14.2C153.9,128.3,148.9,129.1,143.7,129.5z M129,94.9c0.7,0.1,1,0.7,1.1,1.3c0,0.4-0.2,1.1-0.6,1
		c-0.8-0.2-0.7-1-0.8-1.6C128.8,95.4,128.6,94.8,129,94.9z M165,137.8L165,137.8c1.2-0.8,2.5-1.3,3.9-1.5
		C168.3,137.7,167.2,138.2,165,137.8z M171.2,139.4c1.8-0.9,3.7-1.4,5.7-1.4C175.1,138.7,173.3,139.5,171.2,139.4z M175.6,155.6
		L175.6,155.6c1.2-1.2,2.9-1.8,4.2-1.6C179.3,154.9,178,155.5,175.6,155.6z M184.9,52.7c-1.9-0.4-3.1-1.8-4.5-3c0,0,0,0,0,0
		c-0.1-0.1-0.1-0.4,0-0.5c0.2-0.3,0.4-0.3,0.6-0.1c1.4,1.1,2.7,2.2,4.1,3.3L184.9,52.7z M190,60.7c-0.2,0.2-0.5,0-0.7-0.1
		c-0.8-0.4-1.3-1-1.7-1.7c-0.7-1.1-1.3-2.3-2.4-3.1h0c1.3,0.1,2.4,0.8,3.2,1.8c0.6,0.7,1.1,1.5,1.5,2.4
		C190,60.3,190.2,60.6,190,60.7z M192,116.6c-0.1,1.1-0.3,2.1-0.4,3.2c0,0.2-0.1,0.5-0.4,0.5c-0.4,0-0.3-0.3-0.3-0.6
		c0.1-1,0.2-2.1,0.4-3.1c0-0.3,0-0.7,0.5-0.7C192.2,115.9,192,116.3,192,116.6z M196.1,79.8c-0.9-0.8-1-2.7-0.2-4.3
		C196,77,196.3,78.4,196.1,79.8z"/>
	<path d="M37.9,118.9C37.9,118.9,37.9,118.9,37.9,118.9C37.9,118.9,37.9,118.9,37.9,118.9L37.9,118.9z"/>
	<path d="M167.2,97.3c-1.2-4.2-3.8-7.5-7.8-9.4c-6.5-2.9-13.4-3.6-20.4-3.1c-0.5,0-0.9,0.4-1,0.9c-0.2,1-0.4,2.1-0.4,3.1
		c-0.1,3.7-0.3,7.4-0.2,12c-0.2,5.1,0.5,11.1,0.4,17.1c0,1.2,0.1,2.3,0.2,3.5c0,0.6,0.1,1.1,1,0.9c4.1-0.7,8.2-0.5,12.3-0.6
		c3.9,0,7.1-1.6,9.8-4.4c3.7-3.9,5.3-8.8,6.1-14C167.5,101.5,167.8,99.3,167.2,97.3z"/>
	<path d="M60.6,84.2c-3.1-1.2-6.4-1.3-9.7-1.5c-1.1-0.1-1.5,0.5-1.5,1.6c0,2.9,0,5.8,0,8.6c0,3.5,0,7,0.4,10.5
		c0.2,1.3,0.6,1.8,1.8,1.5c2.3-0.6,4.7-0.8,7.1-1.3c7.3-1.7,8.7-5,8.5-10C67.1,89,64.8,85.8,60.6,84.2z M60.7,90.1
		c-0.8-1.5-1.6-2.8-1.4-4.6C60.1,86.9,61.1,88.3,60.7,90.1z"/>
</g>
</svg>
