<?xml version="1.0" encoding="utf-8"?>
<!-- Generator: Adobe Illustrator 22.1.0, SVG Export Plug-In . SVG Version: 6.00 Build 0)  -->
<svg version="1.1" id="Layer_1" xmlns="http://www.w3.org/2000/svg" xmlns:xlink="http://www.w3.org/1999/xlink" x="0px" y="0px"
	 viewBox="0 0 150 150" style="enable-background:new 0 0 150 150;" xml:space="preserve">
<style type="text/css">
	.st0{fill:#FFE000;}
</style>
<g>
	<path class="st0" d="M82.6,4c-0.2-0.2-0.3-0.3-0.4-0.5c0.1,0,0.2-0.1,0.3,0c4.5,0.4,8.8,1.3,13.1,2.6c11.2,3.4,21,9.1,29.4,17.3
		c7.7,7.5,13.5,16.2,17.4,26.2c0.2,0.5,0.4,1,0.2,1.6c-0.1,0.2,0,0.4,0,0.6c0.1,0.5,0.1,1.1,0.2,1.7c0.5-0.4,0.1-1,0.5-1.4
		c0.5,1.2,0.8,2.4,1.2,3.6c2.2,7.6,3.1,15.3,2.6,23.1c-1,18.1-7.7,33.9-20.3,47c-10,10.4-22.1,17.2-36.2,20.4
		c-6.2,1.4-12.6,2-19,1.7c-18.2-0.9-34-7.6-47.2-20.2c-10.2-9.7-16.8-21.4-20.2-35.1c-0.8-3.1-1.3-6.3-1.7-9.5
		c-0.1-0.7,0.5-1.3,0.3-2.1c-0.1-0.3,0-0.6-0.1-0.8c-0.8-1.1-0.6-2.4-0.6-3.7c-0.1-19.8,6.6-37,20.2-51.3
		c10.7-11.2,23.7-18.2,39-21.1c2-0.4,4.1-0.6,6.2-0.9c1-0.1,1.9,0.4,2.9,0.3c0.5-0.1,0.5,0,1-0.5c0.1-0.1,0.2-0.1,0.4-0.1
		c2.6-0.1,5.1-0.1,7.7,0.1c0.2,0,0.5,0,0.2,0.3c-0.2,0.2,0.1,0.2,0.3,0.3C80.7,3.8,81.6,3.9,82.6,4 M125,73.3c0-1.2,0-2.1-0.1-2.9
		c-0.3-2.2-1.5-4-2.3-6c-1.3-3-3.7-4.6-6.9-5.2c-2.3-0.5-4.7-0.5-7-0.9c-2.2-0.4-4.3-0.7-6.5-0.8c-3.8-0.1-7.6,0.4-11.4,0
		c-0.2,0-0.5,0-0.7,0.2c-0.5,0.6,0.1,2.3,0.9,2.3c0.7,0.1,1.4,0.1,2.1,0.2c1.5,0,2,0.5,2,2c-0.1,2.1-0.3,4.3-0.3,6.4
		c0,6.5,0,13,0,19.5c0,2.1-0.8,3.1-2.9,3.5c-0.8,0.2-1.2,0.6-1.3,1.4c-0.1,0.4,0,0.8,0,1.3c0.2,1.3,0.5,1.5,1.8,1.4
		c3.9-0.4,7.8-0.6,11.7-0.9c3.7-0.3,7.4-0.8,10.9-2.1c4.9-1.8,7.9-5.3,9.2-10.3C125,79.2,124.8,76.1,125,73.3 M37.3,56.4
		c0,0,0-0.1,0-0.1c-2,0-4,0-5.9,0c-1.1,0-2.2,0.1-3.2,0.4c-1.2,0.3-1.8,2.4-1,3.4c0.2,0.3,0.5,0.4,0.8,0.4c1.1-0.2,2,0.5,3,0.7
		c0.4,0.1,0.6,0.4,0.5,0.8c-0.4,1.5-0.1,3.1,0.1,4.6c0.4,4.3,0.3,8.5,0.2,12.8c0,2.1-0.2,4.2,0,6.3c0.2,1.8,0.5,3.5,0.5,5.3
		c0,1.6-0.5,2.2-2.1,2.3c-0.8,0-1.5,0.3-2.2,0.7c-0.6,0.4-0.8,1.1-0.5,2c0.2,0.6,0.7,0.3,1.1,0.3c1.5,0,3-0.1,4.5,0
		c2.8,0.2,5.6,0.3,8.4-0.2c0.6-0.1,0.9-0.2,0.7-0.9c-0.1-0.7-0.5-1-1.1-1.1c-0.9-0.1-1.9-0.2-2.8,0c-0.7,0.1-1-0.2-1.1-1
		c-0.1-1.5-0.3-3-0.4-4.6c-0.2-1.9-0.5-3.8-0.5-5.7c0-1.4,0.3-1.7,1.7-1.7c1,0,2,0.1,3,0.1c3.3-0.1,6.2-1.4,9-3.2
		c0.7-0.5,1.2-1.1,1.5-1.9c1.2-3.1,1.8-6.3,1.7-9.7c-0.1-2.9-1.2-5.3-2.9-7.5c-0.7-0.9-1.7-1.6-2.9-1.9c-1.6-0.4-3.2-0.7-4.9-0.7
		C40.9,56.4,39.1,56.4,37.3,56.4 M78.2,91.2c-1.1,0-2.3,0-3.4-0.2c-3.4-0.5-6.1-2.3-8.8-4.3c-1.8-1.4-3.1-3.2-3.8-5.4
		c-0.8-2.7-1.5-5.4-1.1-8.2c0.3-1.9,0.6-3.8,0.8-5.8c0.1-0.6,0.4-1.2,0.8-1.7c0.7-0.8,1.3-1.7,2-2.5c1.3-1.5,2.8-2.5,4.8-2.7
		c1-0.1,2.1-0.4,3.1-0.5c3.1-0.4,6.1-0.4,9,0.7c1.5,0.5,1.8,1,1.8,2.6c0.1,1.8,0.1,1.9,2,1.8c0.6,0,0.8-0.3,0.8-0.8
		c0-1.3,0-2.5-0.2-3.8c-0.2-0.9-0.6-1.8-1.5-2.2c-1.4-0.6-2.9-1.3-4.5-1.5c-2.2-0.3-4.3-0.5-6.5-0.7c-2-0.2-3.9-0.3-5.9,0
		c-4.2,0.6-9.4,6.5-10.1,10.5c-0.8,4.7-1.1,9.4-0.8,14.2c0.3,5.1,2.6,9.1,6.5,12.3c0.4,0.3,0.8,0.5,1.2,0.6c2.4,0.8,4.9,1.3,7.5,1.5
		c2.6,0.2,5.2,0,7.7,0.3c0.9,0.1,1.8,0.3,2.7,0.3c1.1,0,1.7-0.5,1.8-1.7c0.1-0.7,0.1-1.5,0-2.2c-0.1-0.9-0.3-1.1-1.2-1
		C81.4,90.9,79.8,91.1,78.2,91.2 M28.7,77.5c-0.6,3.1-0.4,7.4,0.4,8.9C29.1,83.3,29.6,80.3,28.7,77.5 M100.4,25.3
		c-2.5-1.9-6.7-3.9-7.8-3.8C94.6,23.2,98.9,25.3,100.4,25.3 M63.2,24.8c4.3,1.4,8.6,2.8,13,3.7C72,27,67.7,25.5,63.2,24.8 M27.5,87
		c0.3,0.2,0.4,0.6,0.8,0.5c0.3-0.2,0.1-0.5,0-0.7c-0.1-0.8-0.1-1.6-0.2-2.4c0-0.2,0.1-0.5-0.2-0.6c-0.3-0.1-0.4,0.2-0.5,0.4
		c-0.7,1-1,2.1-0.6,3.4c0.1,0.4,0.1,0.9,0.5,0.9c0.5,0,0.2-0.6,0.3-0.9C27.5,87.4,27.5,87.2,27.5,87 M51.6,98.7
		c0.4-2.9,0.6-5.8,0.1-8.7C50.9,92.9,51.4,95.8,51.6,98.7 M27.3,81.5c1.1-1.9,0.4-3.6-0.2-5.4C26.5,77.9,26.7,79.7,27.3,81.5
		 M84.8,33.8c0.1,0.1,0.2,0.3,0.4,0.4c1.1,1.1,2.6,1.7,3.7,2.7c0.2,0.2,0.5,0.2,0.7,0.3c0.2,0,0.4,0.2,0.5,0
		c0.1-0.2-0.1-0.4-0.2-0.5c-0.5-0.4-1-0.8-1.2-1.5c-0.1-0.4-0.4-0.3-0.7,0c-0.2,0.1-0.3,0.4-0.5,0.1C86.9,34.3,85.8,34.1,84.8,33.8
		 M101.4,101.5c-0.8,0.1-1.5-0.3-2.2,0c-0.2,0.1-0.4,0-0.4,0.2c0,0.2,0.2,0.3,0.4,0.4c0.7,0.5,1.4,0.4,2.1,0.1
		c0.7-0.3,1.4-1,2.3-0.7c0.1,0,0.3-0.1,0.3-0.3c0-0.2-0.1-0.2-0.2-0.3c-0.9-0.1-1.8-0.4-2.7,0C101.1,101.2,101.4,101.2,101.4,101.5
		 M23.5,84c-0.4,0.1-0.3,0.3-0.3,0.5c-0.2,0.7-0.4,1.3-0.9,1.8c-0.5,0.5-0.5,1-0.4,1.6c0,0.2,0.1,0.4,0.4,0.4c0.2,0,0.4,0,0.5-0.2
		C23.6,86.8,23.7,85.4,23.5,84 M89.3,11.4c-2.3-1.1-4.7-1.5-7.2-1.3C84.5,10.6,86.8,11.5,89.3,11.4 M103,133.4
		c-1.3-1.2-4.1-1.2-4.9,0H103z M57,26.5c2.2,1,4.6,1.5,7,1.7C61.8,27.1,59.4,26.8,57,26.5 M17.1,53.6c0.4-1.3,0.3-5.2-0.2-6.9
		C16.4,47.6,16.5,51.6,17.1,53.6 M134.2,41.4c0.8,0.6,1.2,1.4,1.7,2.2c0.3,0.5,0.7,0.9,1.2,1.2c0.2,0.1,0.4,0.2,0.5,0.1
		c0.2-0.1,0-0.3-0.1-0.5c-0.3-0.6-0.6-1.2-1.1-1.7C135.9,42,135.2,41.5,134.2,41.4 M92.2,14.8c-1.4-1-5.1-1.8-6.1-1.3
		C88.2,14.3,90.2,14.7,92.2,14.8 M6.7,84.4c-0.2,1.2-0.4,2.4,0,3.7c0.1,0.3,0.3,0.6,0.4,0.9c0.1,0.1,0.1,0.2,0.3,0.2
		c0.2,0,0.2-0.2,0.2-0.3C7.7,87.3,7.4,85.9,6.7,84.4 M78.5,137.6c1.5,0.5,2.8,0.2,4.2-0.3c0.1,0,0.2-0.1,0.2-0.2
		c-0.1-0.1-0.2-0.2-0.3-0.2C81.4,136.4,79.5,136.7,78.5,137.6 M28.5,66.4c0,0-0.1,0-0.1,0c0,2.8,0,5.6,0,8.3c0,0.3,0.1,0.4,0.4,0.4
		c0.3,0,0.3-0.2,0.3-0.5c0-0.2,0-0.3,0-0.5c-0.2-1.5-0.3-3-0.3-4.5C28.7,68.7,28.6,67.6,28.5,66.4 M10.4,67.8
		c-0.1,1.3,0,2.3,0.4,3.3c0.2,0.4,0.3,1,0.7,0.9c0.3-0.1,0.1-0.6,0.2-1c0-0.2,0-0.4,0-0.5C11.5,69.4,11.3,68.6,10.4,67.8
		 M103.4,40.4c-0.6-0.8-1.3-1.6-2-2.2c-0.2-0.2-0.5-0.2-0.8,0c-0.2,0.2-0.3,0.4-0.1,0.7C101,39.8,102.3,40.5,103.4,40.4 M16.1,111.6
		c-0.4-1.1-0.5-2.1-1.2-2.8c-0.2-0.2-0.4-0.6-0.8-0.4c-0.3,0.1-0.2,0.5-0.1,0.8C14.2,110.3,14.9,111,16.1,111.6 M14.8,93.1
		c0-1.1-0.1-1.9-0.5-2.8c-0.2-0.5-0.5-0.9-0.9-1.3c-0.2-0.1-0.4-0.2-0.4,0.1C13.3,90.5,13.7,91.8,14.8,93.1 M122.9,99.9
		c1.7-0.3,3.6,0.3,5.2-0.8C126.3,99.4,124.4,98.3,122.9,99.9 M88.6,135.8c1.7-0.3,3.6,0.4,5.2-0.7C91.9,134.7,90.2,135.1,88.6,135.8
		 M19.2,58c-0.2,1.9-0.6,3.7,0.1,5.6C19.7,61.7,19.7,59.8,19.2,58 M37.2,47.2c-0.1,0-0.1,0.1-0.2,0.1c0.4,1.5,1.1,2.9,2.1,4.1
		c0.1,0.2,0.3,0.4,0.6,0.2c0.2-0.2,0.1-0.3,0-0.5C38.9,49.8,38.1,48.5,37.2,47.2 M54.7,89.5v-5.8C53.8,84.5,53.9,88.3,54.7,89.5
		 M47.6,110.2c-1-0.9-4.3-1.6-5.3-1.2C44,109.8,45.8,110,47.6,110.2 M91.4,17c0.9,1.3,3.5,2,4.7,1.4C94.5,17.9,92.9,17.5,91.4,17
		 M42.7,103.2c-0.9-0.7-1.8-0.4-2.6-0.5c-0.3-0.1-0.6,0.5-0.7,0.9c-0.1,0.3,0.5,0.6,0.7,0.5C40.9,103.6,41.8,103.5,42.7,103.2
		 M4.4,81.3C5,79.8,4.6,78.5,4,76.9C3.5,78.6,3.9,79.9,4.4,81.3 M25.1,89.3c0.3-1.4-0.6-2.6-0.6-4C23.8,86.8,24,88.3,25.1,89.3
		 M128.6,53.6c-0.1-0.7-0.6-1-1-1.4c-0.4-0.4-0.8-0.8-1-1.4c-0.1-0.2,0-0.5-0.4-0.5c-0.3,0.1-0.2,0.4-0.2,0.6c0,0.4,0.2,0.8,0.4,1.2
		C127,52.7,127.8,53.2,128.6,53.6 M21.8,111.7c-0.1-1.6-1.3-3.4-2.3-3.7C19.9,109.5,20.6,110.6,21.8,111.7 M123.7,95.8
		c-1.2-0.5-2.7-0.3-3.4,0.5C122.1,96.6,123.1,96.5,123.7,95.8 M10.5,104.8c-0.2,1.4,1.2,5.1,2.1,6c-0.1-0.2-0.1-0.4-0.1-0.6
		C11.8,108.4,11.2,106.6,10.5,104.8 M16.4,58c0.3-1.6,0.1-2.9-0.2-4.3C16.1,55.1,15.2,56.5,16.4,58 M87.9,68.9
		c-0.2,1.3-0.4,2.4,0.2,3.6C88.9,71.4,88.8,70.1,87.9,68.9 M93.3,41.4c1,1.2,2.1,1.9,3.5,2.4C96.3,42.6,95.1,41.7,93.3,41.4
		 M92.3,7.1c1.1,1,3.2,1.6,4.3,1.3C95.2,7.8,93.9,7.2,92.3,7.1 M133.9,39.1c0-0.1,0.1-0.1,0.1-0.2c-1-0.8-2-1.6-3-2.4
		c-0.2-0.1-0.3-0.2-0.5,0c-0.1,0.1-0.1,0.3,0,0.4C131.7,37.8,132.6,38.8,133.9,39.1 M97.7,121.4c0.4-0.1,0.8-0.1,1.2-0.3
		c0.4-0.1,0.5-0.5,0.4-0.8c0-0.2-0.2-0.5-0.5-0.4c-0.5,0.2-1.1,0.2-1.5,0.6c-0.2,0.1-0.4,0.3-0.3,0.6
		C97.2,121.4,97.4,121.4,97.7,121.4 M95,30.1c-1-1-2.3-1.6-3.9-2C92.2,29.5,93.6,29.8,95,30.1 M11.4,61.3c-0.1,1.7,0.4,3.2,1.2,4.6
		C12.3,64.3,12.3,62.7,11.4,61.3 M94.1,39.1c1,1.4,2.3,2.2,3.2,2C96.4,40.2,95.5,39.4,94.1,39.1 M99.4,131.2c-1.4,0-2.7,0.3-3.8,1.2
		C96.9,132.2,98.3,132.3,99.4,131.2 M52.9,48.1c-0.3,1.7,0,3.3,0.8,4C53.6,50.8,53.6,49.5,52.9,48.1 M99.3,101.1
		c0.2,0,0.5,0.2,0.6-0.2c0.1-0.4-0.2-0.5-0.5-0.6c-0.8-0.3-1.5,0-2.2,0.2c-0.1,0-0.2,0.2-0.2,0.2c0,0.2,0.2,0.2,0.3,0.2
		C97.9,101,98.6,101.1,99.3,101.1 M23.4,71.7c-0.3,1.2-0.3,2.3,0.1,3.5C24.2,74.1,24.2,72.8,23.4,71.7 M98.2,124.7
		c-1.2-0.2-2.2,0-3,0.5c-0.1,0.1-0.3,0.1-0.2,0.3c0,0.1,0.2,0.1,0.3,0.1C96.3,125.7,97.3,125.5,98.2,124.7 M97.7,34.8
		c0.8,1,2.1,1.7,3.2,1.8C100.5,35.7,99,34.8,97.7,34.8 M87.8,21.6c0.8,0.8,1.6,1.4,2.8,1.6c0.2,0,0.4,0.1,0.5-0.1
		c0.1-0.2-0.1-0.3-0.3-0.4C89.8,22.1,88.9,21.7,87.8,21.6 M64.6,134.5c0.9,0.7,2,1.2,3.1,1.3c0.2,0,0.4,0,0.5-0.3
		c0-0.2-0.1-0.3-0.3-0.3C66.8,134.9,65.7,134.6,64.6,134.5 M77.8,36.4c0.3,0,0.7,0,0.8-0.3c0.1-0.3-0.3-0.4-0.5-0.6
		c-0.5-0.4-1-0.3-1.5-0.1c-0.2,0.1-0.4,0.1-0.4,0.3c0,0.2,0.2,0.3,0.3,0.4C77,36.3,77.4,36.4,77.8,36.4 M118.6,51.8
		c-0.5-1.2-1.6-1.8-2.6-1.5C116.6,51.1,117.4,51.7,118.6,51.8 M25.4,52.9c-0.5,0.7-0.2,1.1,0.1,1.6c0.4,0.4,0.9,0.7,1.2,1.1
		c0.1,0.1,0.2,0.2,0.3,0.1c0.2-0.1,0.2-0.3,0.1-0.4C26.6,54.5,26,53.7,25.4,52.9 M7.6,63.8c-0.4,1.2-0.6,2.5,0,3.8
		C8,66.3,8,65.1,7.6,63.8 M87.2,112.4c-1-0.1-2-0.4-3,0.3C85.3,113.3,86.3,113.2,87.2,112.4 M111.5,24.6c-0.3-1.5-1.4-2-2.4-1.2
		C109.9,23.7,110.5,24.4,111.5,24.6 M53.5,98.3c0.4-1.7,0.2-2.8-0.4-3.4C52.9,96.1,53,97.3,53.5,98.3 M21.5,49
		c-0.5,1.4-0.2,2.5,0.7,3C22,51,22.4,49.9,21.5,49 M128.2,100.8c-1.5,0-2.9,0.3-4.2,1C125.5,101.9,126.9,101.4,128.2,100.8
		 M92.3,26.2c-0.8-1-1.8-1.5-3.1-1.6C90.2,25.5,91.1,26.1,92.3,26.2 M26.1,86.8c0-0.5,0-1-0.3-1.3c-0.1-0.1-0.3-0.1-0.4,0
		c-0.4,0.4-0.3,0.9-0.1,1.3c0.1,0.3,0.1,1,0.6,0.9C26.2,87.7,26.1,87.2,26.1,86.8 M22,59c0.5-1.1,0.6-2.2,0.2-3.3
		C21.6,56.7,21.7,57.8,22,59 M127.8,73.6c-0.8,1.1-1,2.7-0.4,3.5C127.7,75.9,127.9,74.9,127.8,73.6 M129.1,64.5
		c-0.3-1.6-1-2.7-1.7-2.9C127.5,62.7,128.2,63.8,129.1,64.5 M5.6,63.5v-3.5C5.2,61.2,4.5,62.4,5.6,63.5 M127.2,113.5
		c1.7-0.1,2.7-0.4,3.1-1.2C129.3,112.2,128.1,112.7,127.2,113.5 M117.4,55.2c-0.7-0.7-2.2-1-3.3-0.6
		C115.2,55.1,116.2,55.3,117.4,55.2 M15.5,70.1c-0.1,1.2,0.3,2.1,1,3.2C16.8,71.9,16.3,71,15.5,70.1 M104.3,55.9
		c-1.1-0.7-2.3-0.7-3.5-0.4C102,56.1,103.1,56,104.3,55.9 M15.2,62.7c-0.3,0.8-0.4,1.6-0.1,2.3c0.1,0.2,0.2,0.4,0.4,0.4
		c0.2,0,0.2-0.3,0.3-0.4C16,64.1,15.7,63.4,15.2,62.7 M69.9,147.1c0.6,0,1.1-0.3,1.1-0.7c0-0.5-0.7-0.3-1.1-0.4
		c-0.3-0.1-0.7,0.1-0.7,0.6C69.2,146.9,69.4,147.1,69.9,147.1 M11,98.8c0,1,0.3,1.7,0.8,2.4c0.1,0.1,0.2,0.2,0.3,0.2
		c0.2,0,0.2-0.2,0.2-0.4C12.2,100.1,11.9,99.4,11,98.8 M113.3,42.3c-0.4-1.7-1.6-2.6-2.4-2.1C111.7,40.9,112.5,41.6,113.3,42.3
		 M87.6,138.5c1.1,0.3,2,0.6,3-0.1C89.6,138,88.7,137.7,87.6,138.5 M27.9,120.4c-0.5-1-0.8-1.9-1.6-2.4c-0.1-0.1-0.3-0.2-0.4,0
		c-0.1,0.1,0,0.3,0.1,0.4C26.3,119.2,26.9,119.9,27.9,120.4 M67,137.3c-1.1-0.4-1.9-0.7-3-0.6C65.1,137.8,65.7,137.9,67,137.3
		 M14.6,78.3c0.1,1.1,0.1,2.2,1.1,3.2C15.4,80.3,15.5,79.1,14.6,78.3 M89.5,145.7c-1.1-0.7-2.3-0.6-3.1,0.1
		C87.5,145.9,88.4,146,89.5,145.7 M26,46.4c-0.5,0.6-0.5,1.2-0.4,1.8c0,0.2,0,0.5,0.3,0.5c0.3,0,0.5-0.2,0.6-0.6
		C26.5,47.5,26.3,47,26,46.4 M29.4,69.2c-0.2,1.8-0.2,3.1,0.2,3.6C30,72,30,71,29.4,69.2 M89,143c-1.5-0.5-2.7-0.4-3.3,0.4
		C86.8,143.3,87.9,143.6,89,143 M25.8,117.4c-0.4-0.9-0.9-1.5-1.6-1.9c-0.1-0.1-0.3-0.1-0.4-0.1c-0.2,0.1-0.1,0.3,0,0.4
		C24.2,116.7,24.8,117.3,25.8,117.4 M24.1,66.2c-0.2,1.1-0.1,1.9,0.3,2.6c0.1,0.1,0.1,0.3,0.3,0.3c0.1,0,0.1-0.2,0.2-0.3
		C24.9,67.9,24.7,67.1,24.1,66.2 M66.4,34.2c1,0.6,2,0.5,2.8-0.1C68.3,33.6,67.4,33.8,66.4,34.2 M119.5,100.7
		c1.6,0.2,2.4-0.1,2.8-1.1C121.4,99.8,120.5,100,119.5,100.7 M12.1,49.8c0.3-1,0.4-2,0-3.2C11.5,47.8,11.5,48.8,12.1,49.8
		 M139.1,85.3c0-0.2,0.1-0.5-0.2-0.5c-0.4,0-0.3,0.3-0.3,0.5c-0.1,0.8-0.2,1.5-0.3,2.3c0,0.2,0,0.4,0.2,0.4c0.2,0,0.2-0.2,0.3-0.3
		C138.9,86.9,139,86.1,139.1,85.3 M80.1,101.9c1,0.5,2.4,0.6,3.2,0.3C82.3,101.7,81.3,101.6,80.1,101.9 M62.1,21.8
		c0,0.1,0,0.2,0,0.2c1.1,0.3,2.3,0.5,3.4,0.8l0-0.2C64.4,22,63.4,21.4,62.1,21.8 M87.5,141.4h-3.2C85.3,141.7,86.4,142,87.5,141.4
		 M107.1,56.8c0.8,1,1.7,1,2.6,0.1C108.8,56.9,108,56.6,107.1,56.8 M5.2,74.4c0.3-1.1,0.5-2-0.2-3C4.7,72.4,4.7,73.3,5.2,74.4
		 M42.2,100.6c-0.1-0.3-0.3-0.6-0.6-0.6c-0.6,0-0.6,0.6-0.7,1c-0.1,0.3,0.3,0.4,0.6,0.4C42,101.4,42.1,101,42.2,100.6 M94.4,119.7
		c1,0.2,1.9,0.6,2.8,0C95.9,119.2,95.3,119.2,94.4,119.7 M72.9,109.9c1,0.5,1.9,0.7,2.8,0.3C74.9,109.8,74,109.3,72.9,109.9
		 M94.3,33.2c-0.7-0.7-1.4-1.2-2.3-1.2C92.4,32.9,93.2,33.3,94.3,33.2 M27.5,71v-3.6C26.9,68.5,26.8,69.8,27.5,71 M78,40.6
		c0.3-0.1,0.7,0,0.6-0.5c-0.1-0.5-0.5-0.5-0.9-0.5c-0.4,0-1.1,0.1-1,0.3C76.8,40.5,77.5,40.5,78,40.6 M4.7,86.4
		c-0.2-1.1-0.4-2.2-0.9-3.2C3.6,84.4,3.8,85.5,4.7,86.4 M79.2,51.9c0,0.1,0,0.1-0.1,0.2l3,1.3c0-0.1,0.1-0.1,0.1-0.2
		C81.4,52.3,80.3,52,79.2,51.9 M107.4,95.9c1.1-0.1,2-0.2,2.8-0.5C109.3,95.1,108.3,94.8,107.4,95.9 M25,106.9
		c-0.2-0.8-0.2-1.3-0.6-1.8c-0.1-0.2-0.3-0.3-0.5-0.2c-0.2,0.1-0.2,0.3-0.2,0.5C23.8,106.1,24.2,106.5,25,106.9 M39.3,32.8
		c0.4,1.4,0.8,2,1.4,2.5C40.6,34,40.1,33.2,39.3,32.8 M26.3,62.6c-0.1,0-0.1,0-0.2,0v3C26.7,64.6,26.7,63.6,26.3,62.6 M22.3,75
		c-0.5,1-0.4,1.7,0.1,2.4C22.8,76.6,22.8,76.1,22.3,75 M141.9,55.6c-0.6,1.1-0.5,2.5,0.1,3.1C142.2,57.7,142,56.7,141.9,55.6
		 M15.3,93.5c-0.2,0.9,0.1,1.5,0.5,2.1c0,0.1,0.2,0.2,0.2,0.2c0.2,0,0.2-0.2,0.2-0.3C16.2,94.8,16,94.1,15.3,93.5 M70.9,96.8
		c0.9,0.2,1.9,0.6,3,0H70.9z M128.4,33.4c0.4,0.9,1.1,1.4,2.2,1.7C130.1,34.1,129.4,33.6,128.4,33.4 M9.9,67.2
		c0.4-0.8,0.4-1.5,0.1-2.2c-0.1-0.2-0.2-0.2-0.4-0.2c-0.2,0-0.2,0.2-0.2,0.3C9.6,65.8,9.4,66.5,9.9,67.2 M92.5,10.6
		c-0.8-0.8-1.8-0.9-2.8-0.6C90.6,10.4,91.5,10.5,92.5,10.6 M93.2,138.3c0.9,0.2,1.7,0.2,2.4-0.6C94.6,137.4,94,137.9,93.2,138.3
		 M80.4,7.1c-0.9-0.6-1.7-0.6-2.3,0.1C78.9,7.3,79.6,7.4,80.4,7.1 M93.3,70.2c0.1,0.4,0,1,0.6,1.1c0.3,0,0.4-0.5,0.4-0.8
		c0-0.5-0.3-0.9-0.8-1C93.2,69.6,93.3,70,93.3,70.2 M127.5,86c0.7-1.1,0.8-2,0.2-2.9C127.7,84.1,127.3,84.9,127.5,86 M115.6,17.2
		c0.9,1,1.6,1.2,2.4,0.7C117.3,17.6,116.6,17.1,115.6,17.2 M45.9,113.7c-0.9-0.8-1.9-1-2.6-0.6C44.2,113.3,44.9,113.9,45.9,113.7
		 M92.5,55.4c0.7,0.6,1.5,0.7,2.4,0.3C94.2,55.2,93.3,55.3,92.5,55.4 M27.2,30.3c0.7-0.8,0.7-1.6,0.6-2.5
		C27.1,28.6,27,29.3,27.2,30.3 M77.4,146.9c0.8,0.6,1.6,0.6,2.2,0.2C78.9,146.6,78.3,146.5,77.4,146.9 M107.4,112.1
		c0.9,0.1,1.7-0.2,2.4-0.8C108.9,111.2,108.1,111.5,107.4,112.1 M50.7,22.3c0.2-0.1,0.7,0.2,0.7-0.2c0-0.4-0.5-0.6-1-0.7
		c-0.3,0-0.8,0.1-0.7,0.4C49.8,22.4,50.3,22.3,50.7,22.3 M60.3,15.3c0.6,0.5,1.3,1,2.4,0.9C61.9,15.5,61.2,15.3,60.3,15.3
		 M110.8,124.5c-1,0.1-1.9,0.2-2.5,1.1C109.2,125.3,110.1,125.1,110.8,124.5 M111.9,55.8c-0.6-0.6-1.3-1-2.4-0.5
		C110.3,55.6,111.1,55.8,111.9,55.8 M87.1,126.2c-0.7-0.2-1.4-0.3-2.1,0.1C85.8,126.8,86.4,126.9,87.1,126.2 M99.5,136.4
		c-0.7,0.1-1.4,0.3-2,0.6C98.3,137.4,99,137.2,99.5,136.4 M74.3,103.3c0.8,0.1,1.5,0.1,2.3,0C75.7,102.7,75.1,102.7,74.3,103.3
		 M74.4,124.8c-0.7-0.1-1.2-0.2-1.8,0.1C73.3,125.3,73.8,125.3,74.4,124.8"/>
	<path class="st0" d="M99.6,74c-0.1-3.4,0.1-6,0.1-8.7c0-0.8,0.2-1.5,0.3-2.3c0.1-0.4,0.3-0.6,0.7-0.6c5.1-0.3,10.1,0.1,14.8,2.3
		c2.9,1.3,4.8,3.7,5.7,6.8c0.4,1.5,0.2,3,0,4.5c-0.6,3.8-1.8,7.3-4.4,10.1c-1.9,2-4.3,3.2-7.1,3.2c-3,0-6-0.1-8.9,0.4
		c-0.6,0.1-0.7-0.3-0.7-0.7c-0.1-0.8-0.2-1.7-0.2-2.5C99.9,82,99.4,77.6,99.6,74"/>
	<path class="st0" d="M35.9,68.2c0-2.1,0-4.2,0-6.2c0-0.7,0.3-1.2,1.1-1.1c2.4,0.2,4.7,0.2,7,1.1c3,1.1,4.7,3.5,4.8,6.7
		c0.2,3.7-0.9,6.1-6.1,7.3c-1.7,0.4-3.4,0.5-5.1,0.9c-0.9,0.2-1.2-0.1-1.3-1.1C35.9,73.2,35.9,70.7,35.9,68.2 M44,66.1
		c0.3-1.3-0.4-2.3-1-3.3C42.9,64.1,43.5,65.1,44,66.1"/>
</g>
</svg>
